<svg width="1181" height="298" viewBox="0 0 1181 298" fill="none" xmlns="http://www.w3.org/2000/svg"><path d="M386.608 199.997C383.275 199.997 383.501 190.824 383.648 189.037C383.675 188.624 383.728 187.531 383.755 186.051C361.515 179.517 279.063 163.838 197.997 135.931C85.1587 97.0784 60.7991 43.1059 78.9188 59.359C90.412 69.6788 99.0519 81.892 126.638 97.6651C140.718 87.5453 175.091 87.4919 195.704 99.8784C209.45 107.838 213.89 122.118 215.61 135.171C235.863 141.984 255.183 147.704 273.183 152.558C273.343 134.291 274.089 106.838 274.223 101.278C274.343 96.4118 292.969 105.612 292.969 111.212C292.969 121.451 293.049 145.424 293.062 151.811C293.062 154.824 292.236 156.424 290.809 157.131C293.462 157.798 296.076 158.438 298.662 159.078C298.076 158.651 297.529 158.184 297.076 157.691C295.302 155.731 296.196 116.385 296.516 110.372C296.729 106.372 312.342 114.172 318.009 118.065C320.222 119.585 320.262 124.425 320.302 127.518C320.435 137.971 320.569 161.118 320.075 164.091C321.755 164.464 323.395 164.838 325.035 165.198C325.035 162.958 325.369 129.358 325.182 124.358C324.955 118.345 348.875 129.025 349.355 135.131C349.862 141.584 349.688 163.624 349.355 169.277C349.328 169.691 349.222 170.037 349.048 170.331C351.315 170.797 353.502 171.251 355.635 171.691C354.902 170.757 354.568 169.211 354.568 166.531C354.568 156.171 354.568 141.425 354.568 137.238C354.568 131.651 369.248 139.998 375.635 143.544C379.408 145.651 378.341 154.744 378.435 157.758C378.581 162.864 378.461 171.024 378.435 176.477C380.395 176.917 382.195 177.331 383.861 177.744C383.848 176.184 383.821 174.651 383.755 173.291C383.435 165.824 384.115 156.931 383.755 150.664C383.408 144.598 381.861 140.918 380.501 138.798C379.141 136.665 351.182 128.411 334.169 120.131C320.342 113.398 270.996 89.5452 259.09 75.6787C253.863 69.5855 259.823 70.1055 271.689 77.3321C271.809 72.1721 271.969 54.1857 272.356 45.5858C272.463 43.0259 272.076 41.7326 269.209 41.1326C256.636 38.5059 244.637 38.1326 232.157 40.0526C229.317 40.4926 229.957 44.1992 229.943 45.6792C229.89 52.4924 229.917 52.7057 222.957 52.1057C199.624 50.0791 176.317 47.8525 152.998 45.7992C131.705 43.9192 110.412 42.0526 89.092 40.4526C85.0921 40.1459 83.8387 40.7192 84.0121 28.9594C84.0921 24.0261 84.8654 23.5861 72.9989 22.9862C70.2256 22.8528 67.1723 22.6662 64.3057 22.4795C54.1325 28.9461 44.826 36.1193 35.9327 44.1725C35.8527 55.879 35.4928 67.5855 36.0127 79.2654C36.5594 91.8385 34.5461 106.212 33.0928 118.771C27.2129 169.491 21.0796 194.144 1.39989 234.57C-1.56006 248.49 0.386575 263.103 5.23984 275.969L79.3455 271.236C79.6121 271.209 79.8655 271.169 80.1721 271.156C83.2254 271.023 86.2654 270.889 89.3187 270.756L294.889 260.983C309.689 260.276 324.502 259.57 339.302 258.823C352.968 258.13 364.208 224.197 377.875 223.37C378.741 223.317 1180.93 159.318 1180.93 159.318C1180.93 159.318 389.994 199.997 386.621 199.997H386.608ZM92.012 226.85C89.2787 227.063 86.5187 225.69 86.452 223.37C86.0787 194.237 86.2787 182.784 86.452 154.824C86.452 134.745 95.0519 123.385 95.0519 129.625C95.0519 141.904 94.9986 163.544 95.0653 182.877C95.1186 196.17 95.2653 209.464 95.5319 222.743C95.5853 225.477 94.9319 226.61 92.012 226.837V226.85ZM117.132 222.757C116.958 224.01 115.918 223.997 114.985 224.103C110.305 224.637 105.625 225.103 100.959 225.757C98.2786 226.13 98.5185 224.303 98.5052 222.797C98.4519 211.05 98.4385 172.691 98.3852 172.691C98.3852 157.131 98.2519 147.478 98.2386 131.918C98.2386 120.291 99.8919 117.252 106.385 112.185C114.278 106.025 116.465 114.305 116.532 134.265C116.812 156.531 116.998 164.384 117.212 186.651C117.225 188.544 117.292 221.637 117.145 222.757H117.132ZM142.651 190.21C142.785 201.104 142.785 207.89 142.785 218.463C142.838 221.117 142.118 221.943 139.571 222.09C134.078 222.41 128.598 222.903 123.118 223.37C121.985 223.463 121.798 222.637 121.505 221.103C121.225 219.637 121.132 188.957 121.132 187.691C121.132 162.384 121.385 122.678 121.385 114.852C121.385 107.025 142.785 118.078 142.785 124.371C142.785 143.811 142.265 170.771 142.651 190.197V190.21ZM164.704 198.57C160.731 205.144 156.838 211.77 153.064 218.477C151.864 220.61 150.131 221.463 148.025 220.983C145.425 220.383 145.865 218.13 145.851 216.65L145.718 171.384C145.718 156.131 145.691 140.865 145.731 125.611C145.745 120.825 145.918 120.945 150.464 122.398C153.544 123.385 159.558 125.891 161.344 127.091C165.878 130.118 165.318 133.558 165.584 139.118C166.438 156.251 166.224 173.384 166.598 190.517C166.664 193.437 166.211 196.037 164.678 198.57H164.704ZM170.811 131.918C177.277 134.531 183.584 136.118 188.157 141.078C189.691 142.744 190.237 144.424 190.624 146.744C191.971 154.878 188.704 161.278 184.477 167.691C179.877 174.677 175.637 181.917 170.531 190.21C171.131 169.917 169.544 151.011 170.811 131.905V131.918ZM192.757 214.41C192.597 217.73 192.277 217.783 178.557 218.957C172.851 219.45 171.224 220.037 174.011 212.104C175.864 206.797 194.104 171.317 193.691 180.397C193.504 184.597 192.931 211.224 192.771 214.423L192.757 214.41ZM213.144 215.677C208.65 216.01 205.09 216.41 200.464 216.743C197.544 216.823 197.237 215.943 197.237 213.703C197.237 201.637 197.21 189.557 197.21 177.491C197.21 173.451 198.637 170.237 200.13 166.984C203.837 158.544 210.544 149.344 213.024 149.344C215.504 149.344 215.09 151.838 215.104 152.958C215.33 172.917 215.41 192.89 215.65 212.864C215.677 214.903 215.21 215.597 213.144 215.69V215.677ZM289.156 202.917C282.503 197.104 269.303 159.838 274.249 161.264C279.756 162.864 281.289 163.611 288.169 165.517C290.556 166.184 290.689 174.064 291.063 179.011C291.663 187.011 292.929 206.21 289.156 202.93V202.917ZM319.902 202.304C319.955 203.704 318.022 204.277 316.649 204.397C310.249 204.93 303.849 205.477 297.449 206.077C294.796 206.33 295.302 204.424 295.276 202.984C295.102 191.264 294.889 178.371 294.716 171.691C294.556 165.718 305.036 168.757 309.809 169.797C314.956 170.917 319.782 172.891 319.889 177.784C320.062 186.011 319.955 194.504 319.902 202.304ZM349.582 200.09C349.488 202.077 347.275 202.717 345.262 202.85C339.329 203.224 333.382 203.65 327.462 204.184C325.275 204.384 324.382 203.437 324.435 201.504C324.542 197.584 324.435 184.744 324.435 182.251C324.435 169.517 332.035 174.037 347.048 177.784C350.688 178.824 349.742 196.33 349.582 200.09ZM377.755 199.224C377.648 200.864 375.688 200.957 374.608 201.037C368.995 201.49 363.355 201.797 357.702 202.17C354.008 202.45 352.915 201.717 352.915 197.93C352.915 192.624 352.808 188.037 353.302 182.424C353.755 179.651 356.915 179.917 358.182 180.171C361.675 180.864 363.742 181.264 367.061 182.011C377.635 184.264 378.248 191.024 377.741 199.237L377.755 199.224Z" fill="#0E1E2E"/><path d="M442.887 130.772H529.926V149.331H421.554V0H526.939V18.5597H442.887V130.772ZM440.967 64.4258H517.766V82.5588H440.967V64.4258Z" fill="#A2578F"/><path d="M596.484 149.331H575.151V0H680.536V18.5597H596.484V149.331ZM594.351 70.6123H671.363V88.9588H594.351V70.6123Z" fill="#A2578F"/><path d="M742.615 130.772H829.654V149.331H721.282V0H826.667V18.5597H742.615V130.772ZM740.695 64.4258H817.494V82.5588H740.695V64.4258Z" fill="#A2578F"/><path d="M874.88 149.331V0H896.213V149.331H874.88ZM893.653 113.278L892.587 87.2521L977.279 0H1001.6L936.106 69.119L924.159 82.3455L893.653 113.278ZM980.692 149.331L919.466 78.0789L933.759 62.2925L1005.65 149.331H980.692Z" fill="#A2578F"/><path d="M1059.41 149.331V18.5597H1008.21V0H1131.73V18.5597H1080.53V149.331H1059.41Z" fill="#A2578F"/><path d="M450.113 297.676C445.26 297.676 440.674 296.85 436.34 295.21C432.02 293.556 428.674 291.436 426.314 288.823L428.46 285.277C430.7 287.583 433.767 289.53 437.66 291.116C441.554 292.703 445.673 293.503 450.02 293.503C454.367 293.503 457.94 292.93 460.713 291.77C463.487 290.623 465.54 289.076 466.873 287.156C468.206 285.223 468.873 283.077 468.873 280.717C468.873 277.917 468.126 275.677 466.633 273.997C465.14 272.317 463.18 270.983 460.753 269.983C458.327 268.983 455.687 268.143 452.82 267.463C449.953 266.783 447.06 266.05 444.14 265.263C441.22 264.49 438.54 263.477 436.114 262.237C433.687 260.997 431.74 259.29 430.274 257.157C428.807 255.01 428.087 252.224 428.087 248.797C428.087 245.69 428.9 242.824 430.514 240.21C432.127 237.597 434.647 235.477 438.074 233.864C441.5 232.251 445.887 231.437 451.233 231.437C454.847 231.437 458.407 231.971 461.927 233.024C465.446 234.077 468.446 235.517 470.926 237.317L469.153 241.144C466.42 239.277 463.473 237.891 460.327 236.984C457.18 236.077 454.153 235.624 451.22 235.624C447.047 235.624 443.593 236.211 440.86 237.397C438.127 238.584 436.1 240.144 434.794 242.117C433.487 244.077 432.834 246.264 432.834 248.704C432.834 251.504 433.567 253.744 435.034 255.424C436.5 257.104 438.434 258.437 440.874 259.437C443.3 260.437 445.98 261.277 448.9 261.957C451.82 262.637 454.713 263.37 457.58 264.157C460.447 264.93 463.087 265.943 465.513 267.183C467.94 268.423 469.9 270.103 471.393 272.223C472.886 274.343 473.633 277.077 473.633 280.437C473.633 283.49 472.793 286.33 471.113 288.983C469.433 291.623 466.873 293.743 463.407 295.33C459.953 296.916 455.527 297.716 450.113 297.716V297.676Z" fill="#0E1E2E"/><path d="M506.02 297.209V236.17H482.5V231.877H534.299V236.17H510.78V297.209H506.02Z" fill="#0E1E2E"/><path d="M574.992 297.676C566.899 297.676 560.525 295.316 555.859 290.583C551.192 285.849 548.859 278.823 548.859 269.49V231.877H553.619V269.303C553.619 277.449 555.485 283.489 559.219 287.409C562.952 291.329 568.245 293.289 575.085 293.289C581.925 293.289 587.125 291.329 590.858 287.409C594.592 283.489 596.458 277.449 596.458 269.303V231.877H601.218V269.49C601.218 278.823 598.885 285.849 594.218 290.583C589.552 295.316 583.138 297.676 574.992 297.676Z" fill="#0E1E2E"/><path d="M656.75 297.209V231.877H660.763L691.096 284.236H688.95L719.189 231.877H723.109L723.202 297.209H718.536L718.442 239.063H719.749L691.096 288.529H688.763L660.017 239.063H661.417V297.209H656.75Z" fill="#0E1E2E"/><path d="M778.362 297.676C773.509 297.676 769.016 296.85 764.869 295.21C760.736 293.556 757.123 291.223 754.043 288.21C750.963 285.197 748.59 281.677 746.91 277.663C745.23 273.65 744.39 269.277 744.39 264.557C744.39 259.837 745.23 255.45 746.91 251.45C748.59 247.437 750.963 243.917 754.043 240.904C757.123 237.89 760.736 235.557 764.869 233.904C769.003 232.251 773.509 231.437 778.362 231.437C783.216 231.437 787.709 232.264 791.856 233.904C795.989 235.557 799.589 237.877 802.629 240.864C805.682 243.85 808.055 247.344 809.762 251.37C811.469 255.384 812.322 259.784 812.322 264.57C812.322 269.357 811.469 273.77 809.762 277.77C808.055 281.783 805.669 285.29 802.629 288.276C799.576 291.263 795.989 293.583 791.856 295.236C787.722 296.89 783.216 297.703 778.362 297.703V297.676ZM778.362 293.29C782.536 293.29 786.389 292.57 789.936 291.143C793.482 289.716 796.562 287.69 799.176 285.077C801.789 282.463 803.829 279.41 805.282 275.93C806.749 272.45 807.469 268.65 807.469 264.543C807.469 260.437 806.735 256.57 805.282 253.104C803.815 249.65 801.789 246.624 799.176 244.01C796.562 241.397 793.482 239.37 789.936 237.944C786.389 236.517 782.536 235.797 778.362 235.797C774.189 235.797 770.336 236.517 766.789 237.944C763.243 239.37 760.149 241.397 757.496 244.01C754.843 246.624 752.803 249.65 751.336 253.104C749.87 256.557 749.136 260.37 749.136 264.543C749.136 268.717 749.87 272.45 751.336 275.93C752.803 279.41 754.856 282.463 757.496 285.077C760.136 287.69 763.243 289.716 766.789 291.143C770.336 292.57 774.189 293.29 778.362 293.29Z" fill="#0E1E2E"/><path d="M850.694 297.676C845.841 297.676 841.254 296.85 836.921 295.21C832.601 293.556 829.254 291.436 826.895 288.823L829.041 285.277C831.281 287.583 834.348 289.53 838.241 291.116C842.134 292.703 846.254 293.503 850.601 293.503C854.947 293.503 858.521 292.93 861.294 291.77C864.067 290.623 866.121 289.076 867.454 287.156C868.787 285.223 869.454 283.077 869.454 280.717C869.454 277.917 868.707 275.677 867.214 273.997C865.721 272.317 863.761 270.983 861.334 269.983C858.907 268.983 856.267 268.143 853.401 267.463C850.534 266.783 847.641 266.05 844.721 265.263C841.801 264.49 839.121 263.477 836.694 262.237C834.268 260.997 832.321 259.29 830.854 257.157C829.388 255.01 828.668 252.224 828.668 248.797C828.668 245.69 829.481 242.824 831.095 240.21C832.708 237.597 835.228 235.477 838.654 233.864C842.081 232.251 846.468 231.437 851.814 231.437C855.427 231.437 858.987 231.971 862.507 233.024C866.027 234.077 869.027 235.517 871.507 237.317L869.734 241.144C867.001 239.277 864.054 237.891 860.907 236.984C857.761 236.077 854.734 235.624 851.801 235.624C847.628 235.624 844.174 236.211 841.441 237.397C838.708 238.584 836.681 240.144 835.374 242.117C834.068 244.077 833.414 246.264 833.414 248.704C833.414 251.504 834.148 253.744 835.614 255.424C837.081 257.104 839.014 258.437 841.454 259.437C843.881 260.437 846.561 261.277 849.481 261.957C852.401 262.637 855.294 263.37 858.161 264.157C861.027 264.93 863.667 265.943 866.094 267.183C868.521 268.423 870.481 270.103 871.974 272.223C873.467 274.343 874.214 277.077 874.214 280.437C874.214 283.49 873.374 286.33 871.694 288.983C870.014 291.623 867.454 293.743 863.987 295.33C860.534 296.916 856.107 297.716 850.694 297.716V297.676Z" fill="#0E1E2E"/><path d="M906.599 297.209V236.17H883.08V231.877H934.879V236.17H911.359V297.209H906.599Z" fill="#0E1E2E"/><path d="M978.093 297.676C973.24 297.676 968.746 296.85 964.6 295.21C960.467 293.556 956.853 291.223 953.773 288.21C950.693 285.197 948.32 281.677 946.64 277.663C944.96 273.65 944.12 269.277 944.12 264.557C944.12 259.837 944.96 255.45 946.64 251.45C948.32 247.437 950.693 243.917 953.773 240.904C956.853 237.891 960.467 235.557 964.6 233.904C968.733 232.251 973.24 231.437 978.093 231.437C982.946 231.437 987.44 232.264 991.586 233.904C995.719 235.557 999.319 237.877 1002.36 240.864C1005.41 243.85 1007.79 247.344 1009.49 251.37C1011.2 255.384 1012.05 259.784 1012.05 264.57C1012.05 269.357 1011.2 273.77 1009.49 277.77C1007.79 281.783 1005.4 285.29 1002.36 288.277C999.306 291.263 995.719 293.583 991.586 295.236C987.453 296.89 982.946 297.703 978.093 297.703V297.676ZM978.093 293.29C982.266 293.29 986.12 292.57 989.666 291.143C993.213 289.716 996.293 287.69 998.906 285.077C1001.52 282.463 1003.56 279.41 1005.01 275.93C1006.48 272.45 1007.2 268.65 1007.2 264.544C1007.2 260.437 1006.47 256.57 1005.01 253.104C1003.55 249.65 1001.52 246.624 998.906 244.01C996.293 241.397 993.213 239.371 989.666 237.944C986.12 236.517 982.266 235.797 978.093 235.797C973.92 235.797 970.066 236.517 966.52 237.944C962.973 239.371 959.88 241.397 957.227 244.01C954.573 246.624 952.533 249.65 951.067 253.104C949.6 256.557 948.867 260.37 948.867 264.544C948.867 268.717 949.6 272.45 951.067 275.93C952.533 279.41 954.587 282.463 957.227 285.077C959.867 287.69 962.973 289.716 966.52 291.143C970.066 292.57 973.92 293.29 978.093 293.29ZM972.773 226.557L985.746 215.544H992.466L977.813 226.557H972.773Z" fill="#0E1E2E"/><path d="M1045.84 297.209L1023.63 231.877H1028.67L1049.76 294.316H1047.24L1068.98 231.877H1073.56L1095.12 294.316H1092.69L1113.97 231.877H1118.64L1096.52 297.209H1091.48L1070.57 236.823H1071.78L1050.88 297.209H1045.84Z" fill="#0E1E2E"/></svg>