<svg width="1181" height="298" viewBox="0 0 1181 298" fill="none" xmlns="http://www.w3.org/2000/svg"><path d="M386.608 199.998C383.275 199.998 383.501 190.825 383.648 189.038C383.675 188.625 383.728 187.531 383.755 186.052C361.515 179.518 279.063 163.838 197.997 135.932C85.1587 97.0794 60.7991 43.1068 78.9188 59.36C90.412 69.6798 99.0519 81.893 126.638 97.6661C140.718 87.5462 175.091 87.4929 195.704 99.8794C209.45 107.839 213.89 122.119 215.61 135.172C235.863 141.985 255.183 147.705 273.183 152.559C273.343 134.292 274.089 106.839 274.223 101.279C274.343 96.4128 292.969 105.613 292.969 111.213C292.969 121.452 293.049 145.425 293.062 151.812C293.062 154.825 292.236 156.425 290.809 157.132C293.462 157.799 296.076 158.439 298.662 159.079C298.076 158.652 297.529 158.185 297.076 157.692C295.302 155.732 296.196 116.386 296.516 110.373C296.729 106.373 312.342 114.173 318.009 118.066C320.222 119.586 320.262 124.426 320.302 127.519C320.435 137.972 320.569 161.119 320.075 164.092C321.755 164.465 323.395 164.838 325.035 165.198C325.035 162.959 325.369 129.359 325.182 124.359C324.955 118.346 348.875 129.026 349.355 135.132C349.862 141.585 349.688 163.625 349.355 169.278C349.328 169.692 349.222 170.038 349.048 170.332C351.315 170.798 353.502 171.252 355.635 171.692C354.902 170.758 354.568 169.212 354.568 166.532C354.568 156.172 354.568 141.425 354.568 137.239C354.568 131.652 369.248 139.999 375.635 143.545C379.408 145.652 378.341 154.745 378.435 157.759C378.581 162.865 378.461 171.025 378.435 176.478C380.395 176.918 382.195 177.332 383.861 177.745C383.848 176.185 383.821 174.652 383.755 173.292C383.435 165.825 384.115 156.932 383.755 150.665C383.408 144.599 381.861 140.919 380.501 138.799C379.141 136.666 351.182 128.412 334.169 120.132C320.342 113.399 270.996 89.5462 259.09 75.6797C253.863 69.5865 259.823 70.1065 271.689 77.333C271.809 72.1731 271.969 54.1867 272.356 45.5868C272.463 43.0268 272.076 41.7335 269.209 41.1335C256.636 38.5069 244.637 38.1336 232.157 40.0536C229.317 40.4936 229.957 44.2002 229.943 45.6801C229.89 52.4934 229.917 52.7067 222.957 52.1067C199.624 50.0801 176.317 47.8534 152.998 45.8001C131.705 43.9202 110.412 42.0535 89.092 40.4535C85.0921 40.1469 83.8387 40.7202 84.0121 28.9604C84.0921 24.0271 84.8654 23.5871 72.9989 22.9871C70.2256 22.8538 67.1723 22.6671 64.3057 22.4805C54.1325 28.947 44.826 36.1203 35.9327 44.1735C35.8527 55.88 35.4928 67.5865 36.0127 79.2663C36.5594 91.8395 34.5461 106.213 33.0928 118.772C27.2129 169.492 21.0796 194.145 1.39989 234.571C-1.56006 248.491 0.386575 263.104 5.23984 275.97L79.3455 271.237C79.6121 271.21 79.8655 271.17 80.1721 271.157C83.2254 271.024 86.2654 270.89 89.3187 270.757L294.889 260.984C309.689 260.277 324.502 259.57 339.302 258.824C352.968 258.13 364.208 224.198 377.875 223.371C378.741 223.318 1180.93 159.319 1180.93 159.319C1180.93 159.319 389.994 199.998 386.621 199.998H386.608ZM92.012 226.851C89.2787 227.064 86.5187 225.691 86.452 223.371C86.0787 194.238 86.2787 182.785 86.452 154.825C86.452 134.746 95.0519 123.386 95.0519 129.626C95.0519 141.905 94.9986 163.545 95.0653 182.878C95.1186 196.171 95.2653 209.465 95.5319 222.744C95.5853 225.478 94.9319 226.611 92.012 226.838V226.851ZM117.132 222.758C116.958 224.011 115.918 223.998 114.985 224.104C110.305 224.638 105.625 225.104 100.959 225.758C98.2786 226.131 98.5185 224.304 98.5052 222.798C98.4519 211.051 98.4385 172.692 98.3852 172.692C98.3852 157.132 98.2519 147.479 98.2386 131.919C98.2386 120.292 99.8919 117.252 106.385 112.186C114.278 106.026 116.465 114.306 116.532 134.266C116.812 156.532 116.998 164.385 117.212 186.652C117.225 188.545 117.292 221.638 117.145 222.758H117.132ZM142.651 190.211C142.785 201.105 142.785 207.891 142.785 218.464C142.838 221.118 142.118 221.944 139.571 222.091C134.078 222.411 128.598 222.904 123.118 223.371C121.985 223.464 121.798 222.638 121.505 221.104C121.225 219.638 121.132 188.958 121.132 187.691C121.132 162.385 121.385 122.679 121.385 114.853C121.385 107.026 142.785 118.079 142.785 124.372C142.785 143.812 142.265 170.772 142.651 190.198V190.211ZM164.704 198.571C160.731 205.145 156.838 211.771 153.064 218.478C151.864 220.611 150.131 221.464 148.025 220.984C145.425 220.384 145.865 218.131 145.851 216.651L145.718 171.385C145.718 156.132 145.691 140.865 145.731 125.612C145.745 120.826 145.918 120.946 150.464 122.399C153.544 123.386 159.558 125.892 161.344 127.092C165.878 130.119 165.318 133.559 165.584 139.119C166.438 156.252 166.224 173.385 166.598 190.518C166.664 193.438 166.211 196.038 164.678 198.571H164.704ZM170.811 131.919C177.277 134.532 183.584 136.119 188.157 141.079C189.691 142.745 190.237 144.425 190.624 146.745C191.971 154.879 188.704 161.279 184.477 167.692C179.877 174.678 175.637 181.918 170.531 190.211C171.131 169.918 169.544 151.012 170.811 131.906V131.919ZM192.757 214.411C192.597 217.731 192.277 217.784 178.557 218.958C172.851 219.451 171.224 220.038 174.011 212.104C175.864 206.798 194.104 171.318 193.691 180.398C193.504 184.598 192.931 211.225 192.771 214.424L192.757 214.411ZM213.144 215.678C208.65 216.011 205.09 216.411 200.464 216.744C197.544 216.824 197.237 215.944 197.237 213.704C197.237 201.638 197.21 189.558 197.21 177.492C197.21 173.452 198.637 170.238 200.13 166.985C203.837 158.545 210.544 149.345 213.024 149.345C215.504 149.345 215.09 151.839 215.104 152.959C215.33 172.918 215.41 192.891 215.65 212.864C215.677 214.904 215.21 215.598 213.144 215.691V215.678ZM289.156 202.918C282.503 197.105 269.303 159.839 274.249 161.265C279.756 162.865 281.289 163.612 288.169 165.518C290.556 166.185 290.689 174.065 291.063 179.012C291.663 187.011 292.929 206.211 289.156 202.931V202.918ZM319.902 202.305C319.955 203.705 318.022 204.278 316.649 204.398C310.249 204.931 303.849 205.478 297.449 206.078C294.796 206.331 295.302 204.425 295.276 202.985C295.102 191.265 294.889 178.372 294.716 171.692C294.556 165.718 305.036 168.758 309.809 169.798C314.956 170.918 319.782 172.892 319.889 177.785C320.062 186.012 319.955 194.505 319.902 202.305ZM349.582 200.091C349.488 202.078 347.275 202.718 345.262 202.851C339.329 203.225 333.382 203.651 327.462 204.185C325.275 204.385 324.382 203.438 324.435 201.505C324.542 197.585 324.435 184.745 324.435 182.252C324.435 169.518 332.035 174.038 347.048 177.785C350.688 178.825 349.742 196.331 349.582 200.091ZM377.755 199.225C377.648 200.865 375.688 200.958 374.608 201.038C368.995 201.491 363.355 201.798 357.702 202.171C354.008 202.451 352.915 201.718 352.915 197.931C352.915 192.625 352.808 188.038 353.302 182.425C353.755 179.652 356.915 179.918 358.182 180.172C361.675 180.865 363.742 181.265 367.061 182.012C377.635 184.265 378.248 191.025 377.741 199.238L377.755 199.225Z" fill="white"/><path d="M442.886 130.772H529.925V149.331H421.553V0H526.939V18.5597H442.886V130.772ZM440.967 64.4258H517.765V82.5588H440.967V64.4258Z" fill="white"/><path d="M596.483 149.331H575.15V0H680.536V18.5597H596.483V149.331ZM594.35 70.6123H671.362V88.9588H594.35V70.6123Z" fill="white"/><path d="M742.615 130.772H829.654V149.331H721.282V0H826.667V18.5597H742.615V130.772ZM740.695 64.4258H817.494V82.5588H740.695V64.4258Z" fill="white"/><path d="M874.88 149.331V0H896.213V149.331H874.88ZM893.653 113.278L892.586 87.2521L977.278 0H1001.6L936.105 69.119L924.159 82.3455L893.653 113.278ZM980.691 149.331L919.466 78.0789L933.759 62.2925L1005.65 149.331H980.691Z" fill="white"/><path d="M1059.41 149.331V18.5597H1008.21V0H1131.73V18.5597H1080.53V149.331H1059.41Z" fill="white"/><path d="M450.113 297.675C445.26 297.675 440.673 296.848 436.34 295.208C432.02 293.555 428.673 291.435 426.313 288.822L428.46 285.275C430.7 287.582 433.767 289.529 437.66 291.115C441.553 292.702 445.673 293.502 450.02 293.502C454.366 293.502 457.94 292.929 460.713 291.769C463.486 290.622 465.54 289.075 466.873 287.155C468.206 285.222 468.873 283.075 468.873 280.715C468.873 277.915 468.126 275.675 466.633 273.995C465.14 272.315 463.18 270.982 460.753 269.982C458.326 268.982 455.686 268.142 452.82 267.462C449.953 266.782 447.06 266.049 444.14 265.262C441.22 264.489 438.54 263.476 436.113 262.236C433.687 260.996 431.74 259.289 430.273 257.156C428.807 255.009 428.087 252.222 428.087 248.796C428.087 245.689 428.9 242.823 430.513 240.209C432.127 237.596 434.647 235.476 438.073 233.863C441.5 232.249 445.887 231.436 451.233 231.436C454.846 231.436 458.406 231.969 461.926 233.023C465.446 234.076 468.446 235.516 470.926 237.316L469.153 241.143C466.42 239.276 463.473 237.889 460.326 236.983C457.18 236.076 454.153 235.623 451.22 235.623C447.047 235.623 443.593 236.209 440.86 237.396C438.127 238.583 436.1 240.143 434.793 242.116C433.487 244.076 432.833 246.262 432.833 248.702C432.833 251.502 433.567 253.742 435.033 255.422C436.5 257.102 438.433 258.436 440.873 259.436C443.3 260.436 445.98 261.276 448.9 261.956C451.82 262.636 454.713 263.369 457.58 264.156C460.446 264.929 463.086 265.942 465.513 267.182C467.94 268.422 469.9 270.102 471.393 272.222C472.886 274.342 473.633 277.075 473.633 280.435C473.633 283.489 472.793 286.329 471.113 288.982C469.433 291.622 466.873 293.742 463.406 295.328C459.953 296.915 455.526 297.715 450.113 297.715V297.675Z" fill="white"/><path d="M506.02 297.208V236.169H482.5V231.875H534.299V236.169H510.78V297.208H506.02Z" fill="white"/><path d="M574.993 297.675C566.9 297.675 560.526 295.315 555.86 290.581C551.193 285.848 548.86 278.821 548.86 269.488V231.875H553.62V269.302C553.62 277.448 555.486 283.488 559.22 287.408C562.953 291.328 568.246 293.288 575.086 293.288C581.926 293.288 587.126 291.328 590.859 287.408C594.593 283.488 596.459 277.448 596.459 269.302V231.875H601.219V269.488C601.219 278.821 598.886 285.848 594.219 290.581C589.553 295.315 583.139 297.675 574.993 297.675Z" fill="white"/><path d="M656.75 297.208V231.875H660.764L691.097 284.235H688.95L719.19 231.875H723.11L723.203 297.208H718.536L718.443 239.062H719.75L691.097 288.528H688.763L660.017 239.062H661.417V297.208H656.75Z" fill="white"/><path d="M778.363 297.675C773.509 297.675 769.016 296.848 764.87 295.208C760.736 293.555 757.123 291.222 754.043 288.209C750.963 285.195 748.59 281.675 746.91 277.662C745.23 273.649 744.39 269.276 744.39 264.556C744.39 259.836 745.23 255.449 746.91 251.449C748.59 247.436 750.963 243.916 754.043 240.903C757.123 237.889 760.736 235.556 764.87 233.903C769.003 232.249 773.509 231.436 778.363 231.436C783.216 231.436 787.709 232.263 791.856 233.903C795.989 235.556 799.589 237.876 802.629 240.863C805.682 243.849 808.056 247.342 809.762 251.369C811.469 255.382 812.322 259.782 812.322 264.569C812.322 269.355 811.469 273.769 809.762 277.769C808.056 281.782 805.669 285.289 802.629 288.275C799.576 291.262 795.989 293.582 791.856 295.235C787.723 296.888 783.216 297.702 778.363 297.702V297.675ZM778.363 293.289C782.536 293.289 786.389 292.569 789.936 291.142C793.483 289.715 796.563 287.689 799.176 285.075C801.789 282.462 803.829 279.409 805.282 275.929C806.749 272.449 807.469 268.649 807.469 264.542C807.469 260.436 806.736 256.569 805.282 253.102C803.816 249.649 801.789 246.622 799.176 244.009C796.563 241.396 793.483 239.369 789.936 237.943C786.389 236.516 782.536 235.796 778.363 235.796C774.189 235.796 770.336 236.516 766.79 237.943C763.243 239.369 760.15 241.396 757.496 244.009C754.843 246.622 752.803 249.649 751.336 253.102C749.87 256.556 749.136 260.369 749.136 264.542C749.136 268.716 749.87 272.449 751.336 275.929C752.803 279.409 754.856 282.462 757.496 285.075C760.136 287.689 763.243 289.715 766.79 291.142C770.336 292.569 774.189 293.289 778.363 293.289Z" fill="white"/><path d="M850.694 297.675C845.841 297.675 841.254 296.848 836.921 295.208C832.601 293.555 829.254 291.435 826.894 288.822L829.041 285.275C831.281 287.582 834.348 289.529 838.241 291.115C842.134 292.702 846.254 293.502 850.601 293.502C854.947 293.502 858.52 292.929 861.294 291.769C864.067 290.622 866.12 289.075 867.454 287.155C868.787 285.222 869.454 283.075 869.454 280.715C869.454 277.915 868.707 275.675 867.214 273.995C865.72 272.315 863.76 270.982 861.334 269.982C858.907 268.982 856.267 268.142 853.401 267.462C850.534 266.782 847.641 266.049 844.721 265.262C841.801 264.489 839.121 263.476 836.694 262.236C834.267 260.996 832.321 259.289 830.854 257.156C829.388 255.009 828.668 252.222 828.668 248.796C828.668 245.689 829.481 242.823 831.094 240.209C832.708 237.596 835.228 235.476 838.654 233.863C842.081 232.249 846.467 231.436 851.814 231.436C855.427 231.436 858.987 231.969 862.507 233.023C866.027 234.076 869.027 235.516 871.507 237.316L869.734 241.143C867 239.276 864.054 237.889 860.907 236.983C857.761 236.076 854.734 235.623 851.801 235.623C847.627 235.623 844.174 236.209 841.441 237.396C838.707 238.583 836.681 240.143 835.374 242.116C834.068 244.076 833.414 246.262 833.414 248.702C833.414 251.502 834.147 253.742 835.614 255.422C837.081 257.102 839.014 258.436 841.454 259.436C843.881 260.436 846.561 261.276 849.481 261.956C852.401 262.636 855.294 263.369 858.161 264.156C861.027 264.929 863.667 265.942 866.094 267.182C868.52 268.422 870.48 270.102 871.974 272.222C873.467 274.342 874.214 277.075 874.214 280.435C874.214 283.489 873.374 286.329 871.694 288.982C870.014 291.622 867.454 293.742 863.987 295.328C860.534 296.915 856.107 297.715 850.694 297.715V297.675Z" fill="white"/><path d="M906.598 297.208V236.169H883.078V231.875H934.878V236.169H911.358V297.208H906.598Z" fill="white"/><path d="M978.093 297.676C973.24 297.676 968.746 296.849 964.6 295.209C960.467 293.556 956.853 291.223 953.773 288.21C950.693 285.196 948.32 281.676 946.64 277.663C944.96 273.65 944.12 269.277 944.12 264.557C944.12 259.837 944.96 255.45 946.64 251.45C948.32 247.437 950.693 243.917 953.773 240.904C956.853 237.89 960.467 235.557 964.6 233.904C968.733 232.25 973.24 231.437 978.093 231.437C982.946 231.437 987.44 232.264 991.586 233.904C995.719 235.557 999.319 237.877 1002.36 240.864C1005.41 243.85 1007.79 247.343 1009.49 251.37C1011.2 255.383 1012.05 259.783 1012.05 264.57C1012.05 269.357 1011.2 273.77 1009.49 277.77C1007.79 281.783 1005.4 285.29 1002.36 288.276C999.306 291.263 995.719 293.583 991.586 295.236C987.453 296.889 982.946 297.703 978.093 297.703V297.676ZM978.093 293.29C982.266 293.29 986.12 292.57 989.666 291.143C993.213 289.716 996.293 287.69 998.906 285.076C1001.52 282.463 1003.56 279.41 1005.01 275.93C1006.48 272.45 1007.2 268.65 1007.2 264.543C1007.2 260.437 1006.47 256.57 1005.01 253.103C1003.55 249.65 1001.52 246.623 998.906 244.01C996.293 241.397 993.213 239.37 989.666 237.944C986.12 236.517 982.266 235.797 978.093 235.797C973.92 235.797 970.066 236.517 966.52 237.944C962.973 239.37 959.88 241.397 957.227 244.01C954.573 246.623 952.533 249.65 951.067 253.103C949.6 256.557 948.867 260.37 948.867 264.543C948.867 268.717 949.6 272.45 951.067 275.93C952.533 279.41 954.587 282.463 957.227 285.076C959.867 287.69 962.973 289.716 966.52 291.143C970.066 292.57 973.92 293.29 978.093 293.29ZM972.773 226.557L985.746 215.544H992.466L977.813 226.557H972.773Z" fill="white"/><path d="M1045.84 297.208L1023.62 231.875H1028.66L1049.76 294.315H1047.24L1068.98 231.875H1073.56L1095.12 294.315H1092.69L1113.97 231.875H1118.64L1096.52 297.208H1091.48L1070.57 236.822H1071.78L1050.88 297.208H1045.84Z" fill="white"/></svg>