<svg xmlns="http://www.w3.org/2000/svg" xmlns:xlink="http://www.w3.org/1999/xlink" viewBox="0 0 968.06 916.33"><defs><radialGradient id="d" cx="-161.12" cy="878.77" fx="-161.12" fy="878.77" r="1" gradientTransform="translate(531966.18 2905532.67) scale(3306.96 -3306.96)" gradientUnits="userSpaceOnUse"><stop offset="0" stop-color="#efefef"/><stop offset="1" stop-color="#a2578f"/></radialGradient></defs><path d="M531.41,67.01l2.05,1.57,4.7,1.57,27.36,1.46,37.25,1.94,55.66,2.91,34.49,1.83,41.73,2.17,53.57,2.76,22.51,1.23,18.14,.97,6.64-2.17,1.83-1.46,2.54-4.7,2.43-1.08,2.05,.22,5.79,3.02,1.08,.11,2.16-.49,.97,.22,.97,1.08,.63,1.34,.49,1.31,.6,1.08,1.08,.71,3.28,.37,.6,.86-.37,1.57-.6,1.83v1.68l1.68,2.43h2.16l2.28-.97,1.94-.49,1.68,.86,5.93,5.08,3.62,2.31,7.73,2.91,3.73,3.14,.97,1.46,1.68,3.4,.86,1.34,.97,.6,2.05,.6,.86,.49,1.57,2.31,1.34,3.25,1.08,3.62,.71,3.51,1.46,7.61v3.62l-1.46,2.54-1.19,.97-.37,.97-.48,.71v1.72l.37,1.46,.86,1.23,.97,.86,.6,.71,.22,.86v.82l-.37,.97,.15,4.85,.97,3.99,1.34,3.73,.97,4.11,.86,8.59,.97,3.36,2.32,3.4,.22,9.93,2.31,11.27,8.1,25.16,4.59,9.44,1.94,5.08,3.88,15.12,1.68,4.59,1.72,2.32,.97,2.31,.75,2.28,1.2,2.54,1.68,1.9,1.68,1.34,.97,1.94-.22,3.88-.86,2.32-1.19,1.94-.97,2.17-.11,3.14,.86,2.65,2.87,3.77,1.08,2.32,.11,1.19-.22,1.94v.97l.86,4.48v1.34l-.22,.97-1.08,2.17-.26,1.19,.11,1.68,.37,.97,.37,.86,.26,1.2,.97,24.08-1.34,6.79-3.88,4.7-12.84,8.7-16.09,4.59-8.47,4.96-8.47,7.13-11.72,18.03-3.88,4.7-1.83,2.8-4.48,9.18h.26l1.46,1.23,1.08,1.53,.37,2.05-.71,2.76,2.16,1.46,6.91,1.79,1.46-.6,1.34,1.34,5.93,2.17,2.05,.26v.97l-.75,1.46,.22,.22,1.34-.48,1.19,.48,.86,.86,.97,.11,1.34-1.57,.37,.75,.97,.86,.6,.71,1.57-1.57,.37,1.2-.22,1.94-.37,.6,2.65,5.34,1.83,.6,4.59-.11,1.83,1.08,.6,1.19,.49,1.34,.63,.97,.82,.37,1.2,.86,.37,1.79,.15,1.83,.71,1.94,1.34,5.93,1.08,2.65-1.46,1.08-1.19,1.94-1.83,4.33-.6,2.91v5.08l-.6,1.72,.34,.11h.11l.11,.11v.75l-1.08,.6-.34,3.4-1.08,1.34,1.46,2.8,1.83,2.39-1.08,3.62-1.83,1.83-2.05,1.19-1.57,1.94-.34,1.08-.37,1.72-.6,3.62,.37,.75,.64,1.08,.22,.97-.86,.49-.37,.48,.37,.97,.64,1.08,.48,.6-1.23,1.57-.63,.37-.82,.15v1.2l1.08,1.19,.11,1.46-.6,4.11,.37,2.16,.86,2.17,2.17,3.62h-1.34l1.19,2.43,1.46,.64,1.34,.86,.37,2.05,.11,.97,.63,2.2,1.46,1.08,1.68,.6,1.34,.97-1.46,3.14,.11,.97,3.88,5.82,.75,1.79-1.08,.48-.75,1.08-.11,1.57,.64,2.05-1.83,.71-1.68,1.83-1.34,2.32-.49,2.05,.6,3.25,1.46,.86h1.83l1.57,1.08,5.34,11.72,2.16,2.65,4.85,3.17,4.59,4.59,1.08,1.83-1.57,.86-.34,1.46,1.45,3.02,2.54,3.88,.86,2.05,1.08,6.42v.97l-.34,1.23,.71,.63,1.2,.49,1.19,.82,1.08,1.57,.22,1.19,.11,1.34,.48,1.94,1.46,2.43,6.53,6.05,7.99,4.48,1.23,1.94-1.23,2.69-2.91,.6h-3.13l-1.94,.86-2.54-1.46-2.65,.34-2.17,1.72-1.23,2.69,.11,2.87,1.46,1.94,2.28,1.08,2.69,.37v.97l-1.19,2.65,1.34,2.31,2.65,1.57,2.54,.6-.6,3.55,.71,3.14,2.43,5.93-2.16,3.88,.97,7.13,.6,2.05,.49,.49-.15,.34-1.19,1.72-1.83,1.94-6.16,3.25-.23,1.83,.11,2.91-.11,1.9-.48,1.57-2.16,4.97-5.08,2.16-17.43,.22-3.25,1.08-1.72,.86-1.34,1.34-1.08,2.17-1.34,4.22-1.31,1.94-7.61,8.21-2.8,2.32-5.19,3.99-4.37,3.4-22.02,23.85-2.88,4.48-3.55,2.76-3.88,4.22-10.41,15.34-3.99,4.11-.48,1.19-.71,3.02-.48,1.08-.86,.82-1.68,.6-.86,.6-.97,1.08-5.94,10.75-1.57,1.72-1.08,.48-2.05,.48-1.08,.97-.75,1.31-1.68,4.74-7.28,9.82-2.43,5.67,1.83,5.34,.6,2.16,.64,6.31,.34,1.68,.26,.86,1.19,2.05,2.05,2.16,.6,1.08,.37,2.32,1.34,13.55-.37,2.16-1.57,4.48-1.34,5.23-1.57,3.14-.48,1.79,.6,.75,.49-.37,1.34-1.57,1.46,1.08h-.11l-.34,.11,3.14,2.16,2.76,3.73,1.83,1.34,4.37,2.43,1.2,1.46v1.23l-.86,2.91-.11,1.94,.37,1.34,1.57,2.65,.37,.71-1.08,2.32-1.9-.82-2.17-1.94-1.68-.82-1.08-.37-1.83-2.54-.97-.97-1.08-.11-2.16,.75-3.51-.26-2.05,.26-2.05-.26-2.43-1.57-3.62-3.99-1.9-.6-2.05,1.94-3.4-1.57-7.5-.37-3.51-1.08-4.82-4.96-2.05-.82-5.34,.26-4.48-1.34-.11-1.2-.22-.97,.22-.97v-.97l-1.08-1.23-.86-.11-2.32,.22h-.97l-1.08-.49-3.17-2.05-6.76-1.31-2.8-1.94-.6-4.74-1.2-5.19-2.8-4.48-3.51-3.25-5.19-2.54-3.51-3.29-1.83-.97-1.9,.34-1.68,1.46-1.34,1.57-.97,.75-1.49-1.23-3.25-4.96-1.57-1.68-.97-.22-1.46,.37-.75-.11-.97-.63-1.83-1.68-.97-.75-1.83-.49-6.91,.71-3.13,1.34-1.46-.49-3.62,.71h-1.57l-9.33-2.65-5.45-2.91-1.34-.37-1.68,1.2-3.02,4.48-1.68,1.57-2.05,.34-1.46-.97-1.34-1.46-1.68-1.23-1.46-.11-3.88,.71-1.46,.75-1.9,2.17,1.23,1.34,2.31,1.34,1.2,2.17-.86,1.34-1.83,.37h-2.05l-1.46,.34-2.05,1.94-3.17,4.59-2.05,1.79-2.28,.86-1.83-.37-1.57-1.08-1.57-1.72-1.83-1.34-1.46-.22-1.68,.11-2.17-.37-1.57-1.08-8.59-10.15-1.46-.22-3.62,.64-2.05-.37h-.82l-.97,.6-1.57,1.9-1.08,1.08-2.31,.82-2.16-.49-8.1-4.11-1.46,.37v2.54l-4.96,.26-3.99-1.46h-1.08l-.97,.75-.37,.86-.22,1.31-.48,2.05-.71,2.05-.49,.6-7.39,.71-1.46,.86-2.05,2.54-.97,.75-2.17-.22-.26-.22-.6,.71-1.83,4.11-.6,1.68-.71,1.57-1.2,1.46-.6,5.19-.97,3.62-1.94,1.46-3.13-1.57-4.97-4.7-2.65-1.34-2.91,.37-1.72,1.34-3.25,3.4-2.2,.71-4.48-.37-2.43-.82-1.2-1.72,.37-1.9,3.62-5.94,.49-.37,.6-.11,.64-.37,.22-.82-.11-.6-.75-.86-.11-.37-1.34-.97-.37-.48v-.6l.71-1.08,.11-.6-.6-7.13-.49-2.43-.82-2.8-.86-.71-3.25,1.31-2.05,.11-2.05-.22-5.56-1.94,.26-1.79-.11-2.31,.11-.75,.49-.97h-3.88l-2.05-.49-1.72-1.34-.49-1.08-1.57-4.74-1.83-7.5-1.19-3.02-2.28-1.46-.75-.75-1.57-2.91-1.08-.49-.6,.22-.37,.71-8.36,9.18-.75,.6-1.31,.48-.97,.11h-2.91l-1.83,.37-1.57,.71-1.46,1.34-1.34,2.16-1.57,4.85,.11,.11,.37,.49,.11,.75-.22,.97-.49,.37h-1.46l-.71,2.91-.22,1.83-.75,1.19-2.91,1.23-2.43,.48-.97-.11-.97-.48-1.94-1.34-.86-.37-2.05,.49-3.73,2.16-2.43,.22-1.94-.37-.49-1.72,.37-4.85-.22-2.16-.49-2.05-.11-2.16,.86-2.43-2.8-1.72-9.56-.82,.37-2.43-.22-3.02-1.34-6.27-.49-1.34-1.08-2.54-.49-1.46-.6-5.08-.37-1.19-1.46-1.08-1.45,.22-1.46,.71-1.46,.15-1.19-.75-1.9-2.31-1.23-1.08-1.34-.37-2.91-.22-1.34-.86-.6-1.08-.97-4.37-2.28-4.7-1.72-4.48v-4l2.65-3.02-2.54-1.31-.37-1.94,.22-2.31-.6-2.8-1.46-.82-3.73,2.43h-2.16l-7.13-3.99-3.77-1.34-3.88,.48h.22l.11,.11,.11,.11,.11,.26-2.65,2.31-1.34,.22-1.94-1.57-.6-.97-.6-2.32-.34-.82-1.08-.86-2.32-.49-1.34-.22-3.02-2.65-1.46-.82-6.16-1.23-1.2-1.46,.6-2.8-5.56-3.73-2.91-.75,.48,3.4,.49,.22,.71-.22h.86l.75,1.08,.11,1.46-.49,.63-3.13,.97-3.88,.11-1.68,.49-2.8,2.54-3.51,1.08-3.51-.75-6.31-6.16-1.08-1.42-.75-1.83-.6-1.83-.6-1.68-1.08-1.34-.86-.86-.22-.82,.22-.86,.86-.71v-.49l-1.34-.22-2.65-1.34-1.19-.34-1.08,.22-.86,.48-.97,.15-1.46-.6-4.7-5.93-.22-1.08,.71-1.46,1.08-.48,4.59-.11,2.54-.97,4.11-2.43,1.94-1.68,.86-2.31-1.45-2.8-.97-.97-.22-1.42,.22-1.46,1.08-2.8,.22-.49v-.86l-.22-.34-1.83-2.43-.6-.49-1.57-.6-.6,.37-.22,1.08-.48,1.19-2.91,3.99-1.68,1.34-2.17,.6-8.58-1.57-4.59,.48-2.8,3.4-.49,.37-.49,.15-.48-.15-.49-.37-.86-2.76-2.05-1.68-2.17,.11-1.08,2.8-1.34-.97-.71-1.57-.11-1.94,.11-1.94-.48-.37-.37-.49-.37-.48-.22-.63,1.83-.71-2.05-.86-4.48,.11-2.31-.6-3.4-2.17-.97-.97-.6-1.34-.6-1.94-.37-1.72,.22-.37-1.08-.37-2.91,.6h-1.34l-1.19-.6-2.32-1.9-1.08-.6-9.93-2.8-2.17,.26-4.11-2.54-2.17-.26-2.65,1.57v2.05l3.13,4.59,1.08,2.8,.71,3.17,.97,2.91,1.83,1.79,2.31,1.34,1.83,1.94,.97,2.69,.11,3.62,1.34,1.72,.15,1.9-.6,1.34-1.2-.48-.97-1.57-.49-.86-.6-.37h-1.34l-.26,.37v1.79l-.22,.6h-.86l-1.83-.6h-.86l-1.08,.86-1.57,2.2-.97,.82-2.16,.6-1.94-.11-1.94,.26-2.17,1.83-1.72,2.65-1.08,2.05-1.2,1.68-2.16,1.57-3.02,4.11-3.88,.26-3.99-2.17-3.25-3.02-1.68-2.2-.86-1.94-1.08-5.08-1.08-2.76-2.91-3.02-1.2-2.16-1.34-1.94-2.43-4.48-1.34-1.94-2.16-1.46-4.22-1.57-1.68-2.31-.22-1.34,.11-1.34-.11-1.46-.6-1.46-.86-.22h-5.08l-1.08,.34-.75,.6-.75,.15-1.19-.97-.49-.86-1.19-3.88-3.14-.6-.86-2.65,.75-2.43,1.9,.48-.11-.48-.49-1.72h.6l.86-.6,.49-.22,1.46-1.19,1.72-.97,1.46-1.19,.71-1.94,1.46-.49,3.14,.86,1.68-.34,.86-1.23,1.9-1.94,.86-1.57-.22,.11v-.82l.11-1.19,.11-.75,.49-.82,.22-.34v-.49l-.37-1.19,3.02-1.23-.86-2.91-8.21-8.7-2.91-1.68-3.14-.71-3.51-.11-1.19,.22-.71,1.57-.75,1.94-1.19,1.42-1.57,.37-1.46-.71-3.02-2.31-4.11-.37-5.94,5.79-4.11,.71-.22-.49v-.97l.22-.48,1.34-1.08,.22-1.79-.49-2.05-.86-2.05-1.19-2.43-1.34-1.2-1.57-.22-5.67,2.16h-2.65l-.64-.22-4.81-8.25-.26-.97-.22-1.08-2.43-.22-7.99,1.94-.97-.37-.75-.71-1.34-1.94-1.08-.71-19.22-6.79-3.99,.37-.86,1.12-.97,1.57-1.08,1.08-1.34-.49-.6-1.23,.11-1.46,.22-1.57v-1.46l-1.19-2.91-1.46-1.19-1.68-.86-1.9-1.57-.97-1.68-1.08-2.54-.86-2.69-.22-2.16,.71-2.8,.86-1.57,.11-1.46-1.57-2.54-2.54-1.2-5.94,.37-.86-2.32-.48-2.31-1.08-.6-1.19,.86-.86,2.05-.37,1.57-1.08,.22-1.31-.75-1.19-1.08-.86-1.46-4.85-1.08-1.79-1.68-.22,1.23-.49,.71-1.46,.97-.49,.11-.6,.22-.49,.37-.49,.49,.49,1.72,1.57,1.2,1.46,2.16,.11,4.37-.22,.86-.97,1.08-.22,.49-.11,.86v.6l.11,.49,.11,5.34-.22,1.34-11.01-.86-3.51,.97-2.05-.11v-2.76l1.34-2.16,3.4-3.88,4.85-11.61,4.37-10.9,.22-1.72v-2.91l.15-1.46,.49-1.08,.71-.71,.6-.97,.11-1.94,.11-3.88,.75-4.22,1.34-4.11,1.68-3.25-.37-.37-.37-.48,.49-4.48-1.34-3.02-2.17-2.54-1.83-3.14-.22-1.08-.37-2.8v-.11l-.97-10.64,.86-1.94-.97-2.17-1.83-1.83-1.46-1.2-2.17-1.08-4.48-1.31-2.17-1.23-2.05-1.46-6.31-2.17-2.17-2.31-.49-2.65,.86-3.02,1.94-2.91,1.08-3.17-.15-4.11-.97-3.88-1.19-2.65-4.7-3.88-2.17-2.54-.97-3.99-.37-4.11-1.34-1.83-1.68-1.19-1.57-2.43-.22-3.25,1.19-2.65,5.56-5.6,1.83-2.39,1.46-2.8,.86-3.02,.37-9.56,.49-1.46,2.05-3.73,.37-1.46,.11-1.42,.22-1.34,.71-1.31,1.83-2.2-6.31-4.7-.97-2.17,.6-4.11,1.08-2.88,.37-2.2-1.46-2.2v-.97l1.83-2.54v-3.14l-1.46-2.76-2.65-1.23-2.8-.6-3.25-1.72-2.17-2.43,.63-2.87-2.05-4.59-2.31-6.91-.6-6.31,4.96-4.37,2.28-3.73,1.57-3.73-.49-1.72-1.83-1.68,.71-3.66,2.65-5.67-3.02-2.43-5.67-6.76-5.82-2.32-2.76-3.77-1.83-.82-.97-.97-3.25-6.53-1.46-1.72-10.15-7.5-2.65-1.45-3.14-3.73-1.94-.86-2.17-.15-2.05-.6-1.68-1.31-1.08-2.17,2.54-2.43,.97-1.94,.49-3.02-.22-2.05-1.19-5.56-.63-1.57v-.97l4.74-3.51,5.82-3.02,5.67-4.48,2.91-3.02,1.34-2.91,.22-1.34,2.91-9.07-.22-2.32-.6-2.31-.37-2.54,.22-2.17,.75-1.94,.97-1.46,.97-.6,.71-1.08,2.54-4.96-1.34-1.23-.37-.82-1.46-1.23-.63-.97-.22-1.57v-2.88l-.11-1.31-2.69-12.47-.97-8.32-2.05-3.4-.97-3.4-2.31-3.62-.75-3.36-.11-3.66,.22-5.9-.11-1.57-2.05-6.27-1.46-3.14,.34-2.54-.11-4.48,.97-.11,1.68-.71,1.34-1.19,.11-1.34-1.68-1.19,.97-.6,.37-.49-.37-.6-.97-.6,.49-1.23,.97,.86,1.34,.75,1.19,.86,1.08,3.14,1.34,1.08,2.65,1.2,1.94,2.05,1.08,.82,4.22,.71,5.19,1.83,1.79,1.34,1.46,2.17,3.14,6.05,1.08,1.46,.49-.49,.11-2.54,.49-1.46,.86-.97,1.34-1.08v-1.23l.15-.97-.97-.22-2.54-.22-1.08-.6-3.02-7.28,.6-3.62,2.43-7.02,1.08,.97,.97-.22,1.08-.6h1.46l-.71-4.11,.37-3.28,.6-2.91,.37-3.02h-.6l-.22,1.94-.71,1.31-2.31,2.32,.6,1.08-.86-.37-.75-.49-.49-.6-.49-.86,.49-.49,.82-1.19,.6-.6-1.34-2.76-2.31-1.34-10.64-1.08-1.46-1.68,1.19-3.13-.37-.37v-.11l-.22-.63-.97,1.57-.71,.22-.86-.49-1.08-.22-.86,.37-.6,.86-.63,1.08-.86,1.08,2.91,.6,1.57,.75,.86,1.08-.49,1.94-.97,1.46-1.19,.49-.82-.6-2.69,1.72-1.34,.49-1.34,.11v1.08l1.34,.49-.11,.34-1.19,.22-.97-.11-1.46-.71-1.08-.11-1.57-1.12-4.59-6.64-2.28-1.08h-.22l-.86-2.54-1.68-2.05,.97-.22,.86-.6,1.68-4.37,1.57,.75,1.08,.86,2.91,1.08,9.56,.71,3.88-.71,3.77-2.05,6.91-5.08,25.42-11.38,22.02-5.79,26.73-11.24,17.28-4.59,19-5.19,18.63-8.47,15.49-1.94,10.64-3.62-1.19,1.23-4.7,2.16,2.05,1.46,8.47-1.46v-1.08h-.6v-1.19h4.59v-.86l-.15-.11h-.22l-.22-.22,.11-2.69-2.16-.11-5.23,1.68,3.25-1.68,3.99-2.54,5.93-7.02-1.2,2.39-2.16,2.31-.86,1.23,.86-.37,1.83-.37,1.45-.63,1.34-1.57,3.4-1.57,1.19-1.46-1.19-2.43h-1.9l-.86,.97-1.46,1.46,4.11-7.02,11.12-14.41v1.08l-.6,1.57,.97,.37,1.57-.6,1.2-1.31,.6-2.31-.6-.6-1.34,.6-1.46,1.31,1.9-3.99,3.4-3.4,6.64-4.11,20.08-2.91,7.88-3.14,4.11-.75,3.62-1.31,9.18-10.15,29.04-13.66,36.4-6.91,16.31-5.56,25.79-2.43h15.86l2.17,.86,3.51,3.02,1.34,.71,2.05,.49,32.92,19.75,6.05,7.88,.97,1.79,.97,2.54,.11,2.31-1.72,.86-.49-.63-.48-1.19-.6-1.19-1.68-1.19-1.23-3.14-1.57-2.05-4.59-7.76-.97-.49-3.4-.71-.86-.37-.97-1.57-2.65-.97-5.82-3.88-5.67-2.76-.86-1.34-3.14-2.43-.86-.34-1.19,.49-.63,.86-1.34,4.74-.11,1.08v2.43l.49,.6,2.32,1.08,.48,.6,1.19,2.05,1.34,3.14v1.19l-.37,1.08v1.08l1.08,1.23-.6,3.25,1.08,1.31,1.83-.37,1.57-2.05-.6,2.76,.71,2.17,1.19,1.83,2.43,7.5,.71,1.57-.37,3.77,.11,6.53,.6,6.16,1.34,2.8,1.45,.49,2.91,2.2,1.46,.49,1.34,.11,1.57,.49,1.34,.97,.63,1.46,1.57,2.31,16.2,5.19,3.62,.22,3.02-1.72,.86,.86,1.08,.63,2.69,.86,36.17-5.45,7.99-3.88,3.77-.86,3.02-1.31,5.93-6.2,2.13-.34" style="fill:url(#d);"/><path d="M531.41,67.01l2.05,1.57,4.7,1.57,27.36,1.46,37.25,1.94,55.66,2.91,34.49,1.83,41.73,2.17,53.57,2.76,22.51,1.23,18.14,.97,6.64-2.17,1.83-1.46,2.54-4.7,2.43-1.08,2.05,.22,5.79,3.02,1.08,.11,2.16-.49,.97,.22,.97,1.08,.63,1.34,.49,1.31,.6,1.08,1.08,.71,3.28,.37,.6,.86-.37,1.57-.6,1.83v1.68l1.68,2.43h2.16l2.28-.97,1.94-.49,1.68,.86,5.93,5.08,3.62,2.31,7.73,2.91,3.73,3.14,.97,1.46,1.68,3.4,.86,1.34,.97,.6,2.05,.6,.86,.49,1.57,2.31,1.34,3.25,1.08,3.62,.71,3.51,1.46,7.61v3.62l-1.46,2.54-1.19,.97-.37,.97-.48,.71v1.72l.37,1.46,.86,1.23,.97,.86,.6,.71,.22,.86v.82l-.37,.97,.15,4.85,.97,3.99,1.34,3.73,.97,4.11,.86,8.59,.97,3.36,2.32,3.4,.22,9.93,2.31,11.27,8.1,25.16,4.59,9.44,1.94,5.08,3.88,15.12,1.68,4.59,1.72,2.32,.97,2.31,.75,2.28,1.2,2.54,1.68,1.9,1.68,1.34,.97,1.94-.22,3.88-.86,2.32-1.19,1.94-.97,2.17-.11,3.14,.86,2.65,2.87,3.77,1.08,2.32,.11,1.19-.22,1.94v.97l.86,4.48v1.34l-.22,.97-1.08,2.17-.26,1.19,.11,1.68,.37,.97,.37,.86,.26,1.2,.97,24.08-1.34,6.79-3.88,4.7-12.84,8.7-16.09,4.59-8.47,4.96-8.47,7.13-11.72,18.03-3.88,4.7-1.83,2.8-4.48,9.18h.26l1.46,1.23,1.08,1.53,.37,2.05-.71,2.76,2.16,1.46,6.91,1.79,1.46-.6,1.34,1.34,5.93,2.17,2.05,.26v.97l-.75,1.46,.22,.22,1.34-.48,1.19,.48,.86,.86,.97,.11,1.34-1.57,.37,.75,.97,.86,.6,.71,1.57-1.57,.37,1.2-.22,1.94-.37,.6,2.65,5.34,1.83,.6,4.59-.11,1.83,1.08,.6,1.19,.49,1.34,.63,.97,.82,.37,1.2,.86,.37,1.79,.15,1.83,.71,1.94,1.34,5.93,1.08,2.65-1.46,1.08-1.19,1.94-1.83,4.33-.6,2.91v5.08l-.6,1.72,.34,.11h.11l.11,.11v.75l-1.08,.6-.34,3.4-1.08,1.34,1.46,2.8,1.83,2.39-1.08,3.62-1.83,1.83-2.05,1.19-1.57,1.94-.34,1.08-.37,1.72-.6,3.62,.37,.75,.64,1.08,.22,.97-.86,.49-.37,.48,.37,.97,.64,1.08,.48,.6-1.23,1.57-.63,.37-.82,.15v1.2l1.08,1.19,.11,1.46-.6,4.11,.37,2.16,.86,2.17,2.17,3.62h-1.34l1.19,2.43,1.46,.64,1.34,.86,.37,2.05,.11,.97,.63,2.2,1.46,1.08,1.68,.6,1.34,.97-1.46,3.14,.11,.97,3.88,5.82,.75,1.79-1.08,.48-.75,1.08-.11,1.57,.64,2.05-1.83,.71-1.68,1.83-1.34,2.32-.49,2.05,.6,3.25,1.46,.86h1.83l1.57,1.08,5.34,11.72,2.16,2.65,4.85,3.17,4.59,4.59,1.08,1.83-1.57,.86-.34,1.46,1.45,3.02,2.54,3.88,.86,2.05,1.08,6.42v.97l-.34,1.23,.71,.63,1.2,.49,1.19,.82,1.08,1.57,.22,1.19,.11,1.34,.48,1.94,1.46,2.43,6.53,6.05,7.99,4.48,1.23,1.94-1.23,2.69-2.91,.6h-3.13l-1.94,.86-2.54-1.46-2.65,.34-2.17,1.72-1.23,2.69,.11,2.87,1.46,1.94,2.28,1.08,2.69,.37v.97l-1.19,2.65,1.34,2.31,2.65,1.57,2.54,.6-.6,3.55,.71,3.14,2.43,5.93-2.16,3.88,.97,7.13,.6,2.05,.49,.49-.15,.34-1.19,1.72-1.83,1.94-6.16,3.25-.23,1.83,.11,2.91-.11,1.9-.48,1.57-2.16,4.97-5.08,2.16-17.43,.22-3.25,1.08-1.72,.86-1.34,1.34-1.08,2.17-1.34,4.22-1.31,1.94-7.61,8.21-2.8,2.32-5.19,3.99-4.37,3.4-22.02,23.85-2.88,4.48-3.55,2.76-3.88,4.22-10.41,15.34-3.99,4.11-.48,1.19-.71,3.02-.48,1.08-.86,.82-1.68,.6-.86,.6-.97,1.08-5.94,10.75-1.57,1.72-1.08,.48-2.05,.48-1.08,.97-.75,1.31-1.68,4.74-7.28,9.82-2.43,5.67,1.83,5.34,.6,2.16,.64,6.31,.34,1.68,.26,.86,1.19,2.05,2.05,2.16,.6,1.08,.37,2.32,1.34,13.55-.37,2.16-1.57,4.48-1.34,5.23-1.57,3.14-.48,1.79,.6,.75,.49-.37,1.34-1.57,1.46,1.08h-.11l-.34,.11,3.14,2.16,2.76,3.73,1.83,1.34,4.37,2.43,1.2,1.46v1.23l-.86,2.91-.11,1.94,.37,1.34,1.57,2.65,.37,.71-1.08,2.32-1.9-.82-2.17-1.94-1.68-.82-1.08-.37-1.83-2.54-.97-.97-1.08-.11-2.16,.75-3.51-.26-2.05,.26-2.05-.26-2.43-1.57-3.62-3.99-1.9-.6-2.05,1.94-3.4-1.57-7.5-.37-3.51-1.08-4.82-4.96-2.05-.82-5.34,.26-4.48-1.34-.11-1.2-.22-.97,.22-.97v-.97l-1.08-1.23-.86-.11-2.32,.22h-.97l-1.08-.49-3.17-2.05-6.76-1.31-2.8-1.94-.6-4.74-1.2-5.19-2.8-4.48-3.51-3.25-5.19-2.54-3.51-3.29-1.83-.97-1.9,.34-1.68,1.46-1.34,1.57-.97,.75-1.49-1.23-3.25-4.96-1.57-1.68-.97-.22-1.46,.37-.75-.11-.97-.63-1.83-1.68-.97-.75-1.83-.49-6.91,.71-3.13,1.34-1.46-.49-3.62,.71h-1.57l-9.33-2.65-5.45-2.91-1.34-.37-1.68,1.2-3.02,4.48-1.68,1.57-2.05,.34-1.46-.97-1.34-1.46-1.68-1.23-1.46-.11-3.88,.71-1.46,.75-1.9,2.17,1.23,1.34,2.31,1.34,1.2,2.17-.86,1.34-1.83,.37h-2.05l-1.46,.34-2.05,1.94-3.17,4.59-2.05,1.79-2.28,.86-1.83-.37-1.57-1.08-1.57-1.72-1.83-1.34-1.46-.22-1.68,.11-2.17-.37-1.57-1.08-8.59-10.15-1.46-.22-3.62,.64-2.05-.37h-.82l-.97,.6-1.57,1.9-1.08,1.08-2.31,.82-2.16-.49-8.1-4.11-1.46,.37v2.54l-4.96,.26-3.99-1.46h-1.08l-.97,.75-.37,.86-.22,1.31-.48,2.05-.71,2.05-.49,.6-7.39,.71-1.46,.86-2.05,2.54-.97,.75-2.17-.22-.26-.22-.6,.71-1.83,4.11-.6,1.68-.71,1.57-1.2,1.46-.6,5.19-.97,3.62-1.94,1.46-3.13-1.57-4.97-4.7-2.65-1.34-2.91,.37-1.72,1.34-3.25,3.4-2.2,.71-4.48-.37-2.43-.82-1.2-1.72,.37-1.9,3.62-5.94,.49-.37,.6-.11,.64-.37,.22-.82-.11-.6-.75-.86-.11-.37-1.34-.97-.37-.48v-.6l.71-1.08,.11-.6-.6-7.13-.49-2.43-.82-2.8-.86-.71-3.25,1.31-2.05,.11-2.05-.22-5.56-1.94,.26-1.79-.11-2.31,.11-.75,.49-.97h-3.88l-2.05-.49-1.72-1.34-.49-1.08-1.57-4.74-1.83-7.5-1.19-3.02-2.28-1.46-.75-.75-1.57-2.91-1.08-.49-.6,.22-.37,.71-8.36,9.18-.75,.6-1.31,.48-.97,.11h-2.91l-1.83,.37-1.57,.71-1.46,1.34-1.34,2.16-1.57,4.85,.11,.11,.37,.49,.11,.75-.22,.97-.49,.37h-1.46l-.71,2.91-.22,1.83-.75,1.19-2.91,1.23-2.43,.48-.97-.11-.97-.48-1.94-1.34-.86-.37-2.05,.49-3.73,2.16-2.43,.22-1.94-.37-.49-1.72,.37-4.85-.22-2.16-.49-2.05-.11-2.16,.86-2.43-2.8-1.72-9.56-.82,.37-2.43-.22-3.02-1.34-6.27-.49-1.34-1.08-2.54-.49-1.46-.6-5.08-.37-1.19-1.46-1.08-1.45,.22-1.46,.71-1.46,.15-1.19-.75-1.9-2.31-1.23-1.08-1.34-.37-2.91-.22-1.34-.86-.6-1.08-.97-4.37-2.28-4.7-1.72-4.48v-4l2.65-3.02-2.54-1.31-.37-1.94,.22-2.31-.6-2.8-1.46-.82-3.73,2.43h-2.16l-7.13-3.99-3.77-1.34-3.88,.48h.22l.11,.11,.11,.11,.11,.26-2.65,2.31-1.34,.22-1.94-1.57-.6-.97-.6-2.32-.34-.82-1.08-.86-2.32-.49-1.34-.22-3.02-2.65-1.46-.82-6.16-1.23-1.2-1.46,.6-2.8-5.56-3.73-2.91-.75,.48,3.4,.49,.22,.71-.22h.86l.75,1.08,.11,1.46-.49,.63-3.13,.97-3.88,.11-1.68,.49-2.8,2.54-3.51,1.08-3.51-.75-6.31-6.16-1.08-1.42-.75-1.83-.6-1.83-.6-1.68-1.08-1.34-.86-.86-.22-.82,.22-.86,.86-.71v-.49l-1.34-.22-2.65-1.34-1.19-.34-1.08,.22-.86,.48-.97,.15-1.46-.6-4.7-5.93-.22-1.08,.71-1.46,1.08-.48,4.59-.11,2.54-.97,4.11-2.43,1.94-1.68,.86-2.31-1.45-2.8-.97-.97-.22-1.42,.22-1.46,1.08-2.8,.22-.49v-.86l-.22-.34-1.83-2.43-.6-.49-1.57-.6-.6,.37-.22,1.08-.48,1.19-2.91,3.99-1.68,1.34-2.17,.6-8.58-1.57-4.59,.48-2.8,3.4-.49,.37-.49,.15-.48-.15-.49-.37-.86-2.76-2.05-1.68-2.17,.11-1.08,2.8-1.34-.97-.71-1.57-.11-1.94,.11-1.94-.48-.37-.37-.49-.37-.48-.22-.63,1.83-.71-2.05-.86-4.48,.11-2.31-.6-3.4-2.17-.97-.97-.6-1.34-.6-1.94-.37-1.72,.22-.37-1.08-.37-2.91,.6h-1.34l-1.19-.6-2.32-1.9-1.08-.6-9.93-2.8-2.17,.26-4.11-2.54-2.17-.26-2.65,1.57v2.05l3.13,4.59,1.08,2.8,.71,3.17,.97,2.91,1.83,1.79,2.31,1.34,1.83,1.94,.97,2.69,.11,3.62,1.34,1.72,.15,1.9-.6,1.34-1.2-.48-.97-1.57-.49-.86-.6-.37h-1.34l-.26,.37v1.79l-.22,.6h-.86l-1.83-.6h-.86l-1.08,.86-1.57,2.2-.97,.82-2.16,.6-1.94-.11-1.94,.26-2.17,1.83-1.72,2.65-1.08,2.05-1.2,1.68-2.16,1.57-3.02,4.11-3.88,.26-3.99-2.17-3.25-3.02-1.68-2.2-.86-1.94-1.08-5.08-1.08-2.76-2.91-3.02-1.2-2.16-1.34-1.94-2.43-4.48-1.34-1.94-2.16-1.46-4.22-1.57-1.68-2.31-.22-1.34,.11-1.34-.11-1.46-.6-1.46-.86-.22h-5.08l-1.08,.34-.75,.6-.75,.15-1.19-.97-.49-.86-1.19-3.88-3.14-.6-.86-2.65,.75-2.43,1.9,.48-.11-.48-.49-1.72h.6l.86-.6,.49-.22,1.46-1.19,1.72-.97,1.46-1.19,.71-1.94,1.46-.49,3.14,.86,1.68-.34,.86-1.23,1.9-1.94,.86-1.57-.22,.11v-.82l.11-1.19,.11-.75,.49-.82,.22-.34v-.49l-.37-1.19,3.02-1.23-.86-2.91-8.21-8.7-2.91-1.68-3.14-.71-3.51-.11-1.19,.22-.71,1.57-.75,1.94-1.19,1.42-1.57,.37-1.46-.71-3.02-2.31-4.11-.37-5.94,5.79-4.11,.71-.22-.49v-.97l.22-.48,1.34-1.08,.22-1.79-.49-2.05-.86-2.05-1.19-2.43-1.34-1.2-1.57-.22-5.67,2.16h-2.65l-.64-.22-4.81-8.25-.26-.97-.22-1.08-2.43-.22-7.99,1.94-.97-.37-.75-.71-1.34-1.94-1.08-.71-19.22-6.79-3.99,.37-.86,1.12-.97,1.57-1.08,1.08-1.34-.49-.6-1.23,.11-1.46,.22-1.57v-1.46l-1.19-2.91-1.46-1.19-1.68-.86-1.9-1.57-.97-1.68-1.08-2.54-.86-2.69-.22-2.16,.71-2.8,.86-1.57,.11-1.46-1.57-2.54-2.54-1.2-5.94,.37-.86-2.32-.48-2.31-1.08-.6-1.19,.86-.86,2.05-.37,1.57-1.08,.22-1.31-.75-1.19-1.08-.86-1.46-4.85-1.08-1.79-1.68-.22,1.23-.49,.71-1.46,.97-.49,.11-.6,.22-.49,.37-.49,.49,.49,1.72,1.57,1.2,1.46,2.16,.11,4.37-.22,.86-.97,1.08-.22,.49-.11,.86v.6l.11,.49,.11,5.34-.22,1.34-11.01-.86-3.51,.97-2.05-.11v-2.76l1.34-2.16,3.4-3.88,4.85-11.61,4.37-10.9,.22-1.72v-2.91l.15-1.46,.49-1.08,.71-.71,.6-.97,.11-1.94,.11-3.88,.75-4.22,1.34-4.11,1.68-3.25-.37-.37-.37-.48,.49-4.48-1.34-3.02-2.17-2.54-1.83-3.14-.22-1.08-.37-2.8v-.11l-.97-10.64,.86-1.94-.97-2.17-1.83-1.83-1.46-1.2-2.17-1.08-4.48-1.31-2.17-1.23-2.05-1.46-6.31-2.17-2.17-2.31-.49-2.65,.86-3.02,1.94-2.91,1.08-3.17-.15-4.11-.97-3.88-1.19-2.65-4.7-3.88-2.17-2.54-.97-3.99-.37-4.11-1.34-1.83-1.68-1.19-1.57-2.43-.22-3.25,1.19-2.65,5.56-5.6,1.83-2.39,1.46-2.8,.86-3.02,.37-9.56,.49-1.46,2.05-3.73,.37-1.46,.11-1.42,.22-1.34,.71-1.31,1.83-2.2-6.31-4.7-.97-2.17,.6-4.11,1.08-2.88,.37-2.2-1.46-2.2v-.97l1.83-2.54v-3.14l-1.46-2.76-2.65-1.23-2.8-.6-3.25-1.72-2.17-2.43,.63-2.87-2.05-4.59-2.31-6.91-.6-6.31,4.96-4.37,2.28-3.73,1.57-3.73-.49-1.72-1.83-1.68,.71-3.66,2.65-5.67-3.02-2.43-5.67-6.76-5.82-2.32-2.76-3.77-1.83-.82-.97-.97-3.25-6.53-1.46-1.72-10.15-7.5-2.65-1.45-3.14-3.73-1.94-.86-2.17-.15-2.05-.6-1.68-1.31-1.08-2.17,2.54-2.43,.97-1.94,.49-3.02-.22-2.05-1.19-5.56-.63-1.57v-.97l4.74-3.51,5.82-3.02,5.67-4.48,2.91-3.02,1.34-2.91,.22-1.34,2.91-9.07-.22-2.32-.6-2.31-.37-2.54,.22-2.17,.75-1.94,.97-1.46,.97-.6,.71-1.08,2.54-4.96-1.34-1.23-.37-.82-1.46-1.23-.63-.97-.22-1.57v-2.88l-.11-1.31-2.69-12.47-.97-8.32-2.05-3.4-.97-3.4-2.31-3.62-.75-3.36-.11-3.66,.22-5.9-.11-1.57-2.05-6.27-1.46-3.14,.34-2.54-.11-4.48,.97-.11,1.68-.71,1.34-1.19,.11-1.34-1.68-1.19,.97-.6,.37-.49-.37-.6-.97-.6,.49-1.23,.97,.86,1.34,.75,1.19,.86,1.08,3.14,1.34,1.08,2.65,1.2,1.94,2.05,1.08,.82,4.22,.71,5.19,1.83,1.79,1.34,1.46,2.17,3.14,6.05,1.08,1.46,.49-.49,.11-2.54,.49-1.46,.86-.97,1.34-1.08v-1.23l.15-.97-.97-.22-2.54-.22-1.08-.6-3.02-7.28,.6-3.62,2.43-7.02,1.08,.97,.97-.22,1.08-.6h1.46l-.71-4.11,.37-3.28,.6-2.91,.37-3.02h-.6l-.22,1.94-.71,1.31-2.31,2.32,.6,1.08-.86-.37-.75-.49-.49-.6-.49-.86,.49-.49,.82-1.19,.6-.6-1.34-2.76-2.31-1.34-10.64-1.08-1.46-1.68,1.19-3.13-.37-.37v-.11l-.22-.63-.97,1.57-.71,.22-.86-.49-1.08-.22-.86,.37-.6,.86-.63,1.08-.86,1.08,2.91,.6,1.57,.75,.86,1.08-.49,1.94-.97,1.46-1.19,.49-.82-.6-2.69,1.72-1.34,.49-1.34,.11v1.08l1.34,.49-.11,.34-1.19,.22-.97-.11-1.46-.71-1.08-.11-1.57-1.12-4.59-6.64-2.28-1.08h-.22l-.86-2.54-1.68-2.05,.97-.22,.86-.6,1.68-4.37,1.57,.75,1.08,.86,2.91,1.08,9.56,.71,3.88-.71,3.77-2.05,6.91-5.08,25.42-11.38,22.02-5.79,26.73-11.24,17.28-4.59,19-5.19,18.63-8.47,15.49-1.94,10.64-3.62-1.19,1.23-4.7,2.16,2.05,1.46,8.47-1.46v-1.08h-.6v-1.19h4.59v-.86l-.15-.11h-.22l-.22-.22,.11-2.69-2.16-.11-5.23,1.68,3.25-1.68,3.99-2.54,5.93-7.02-1.2,2.39-2.16,2.31-.86,1.23,.86-.37,1.83-.37,1.45-.63,1.34-1.57,3.4-1.57,1.19-1.46-1.19-2.43h-1.9l-.86,.97-1.46,1.46,4.11-7.02,11.12-14.41v1.08l-.6,1.57,.97,.37,1.57-.6,1.2-1.31,.6-2.31-.6-.6-1.34,.6-1.46,1.31,1.9-3.99,3.4-3.4,6.64-4.11,20.08-2.91,7.88-3.14,4.11-.75,3.62-1.31,9.18-10.15,29.04-13.66,36.4-6.91,16.31-5.56,25.79-2.43h15.86l2.17,.86,3.51,3.02,1.34,.71,2.05,.49,32.92,19.75,6.05,7.88,.97,1.79,.97,2.54,.11,2.31-1.72,.86-.49-.63-.48-1.19-.6-1.19-1.68-1.19-1.23-3.14-1.57-2.05-4.59-7.76-.97-.49-3.4-.71-.86-.37-.97-1.57-2.65-.97-5.82-3.88-5.67-2.76-.86-1.34-3.14-2.43-.86-.34-1.19,.49-.63,.86-1.34,4.74-.11,1.08v2.43l.49,.6,2.32,1.08,.48,.6,1.19,2.05,1.34,3.14v1.19l-.37,1.08v1.08l1.08,1.23-.6,3.25,1.08,1.31,1.83-.37,1.57-2.05-.6,2.76,.71,2.17,1.19,1.83,2.43,7.5,.71,1.57-.37,3.77,.11,6.53,.6,6.16,1.34,2.8,1.45,.49,2.91,2.2,1.46,.49,1.34,.11,1.57,.49,1.34,.97,.63,1.46,1.57,2.31,16.2,5.19,3.62,.22,3.02-1.72,.86,.86,1.08,.63,2.69,.86,36.17-5.45,7.99-3.88,3.77-.86,3.02-1.31,5.93-6.2,2.13-.34" style="fill:none; stroke:#fff;"/><path d="M434.62,77.74c0,4.03-3.27,7.29-7.3,7.29s-7.3-3.27-7.3-7.29,3.27-7.29,7.3-7.29,7.3,3.27,7.3,7.29Zm-7.3,8.86c4.89,0,8.86-3.97,8.86-8.86s-3.97-8.86-8.86-8.86-8.86,3.97-8.86,8.86,3.97,8.86,8.86,8.86Z" style="fill:#0e1e2e; stroke:#0e1e2e;"/><circle cx="427.33" cy="77.74" r="4.71" style="fill:#0e1e2e;"/><path d="M379.61,105.1v-12.72h-4.92v-1.28h11.32v1.28h-4.92v12.72h-1.48Zm8.19,0v-10.5h1.36v2.86l-.14-.5c.29-.8,.79-1.41,1.48-1.82,.69-.43,1.55-.64,2.58-.64v1.38h-.16c-.05-.01-.11-.02-.16-.02-1.11,0-1.97,.34-2.6,1.02-.63,.67-.94,1.62-.94,2.86v5.36h-1.42Zm12.05,.1c-1.01,0-1.93-.23-2.74-.68-.8-.47-1.43-1.1-1.9-1.9-.47-.81-.7-1.74-.7-2.78s.23-1.98,.7-2.78c.47-.8,1.1-1.43,1.9-1.88,.8-.45,1.71-.68,2.74-.68s1.96,.23,2.76,.68c.81,.45,1.45,1.08,1.9,1.88,.47,.8,.7,1.73,.7,2.78s-.23,1.97-.7,2.78c-.45,.8-1.09,1.43-1.9,1.9-.81,.45-1.73,.68-2.76,.68Zm0-1.26c.76,0,1.43-.17,2.02-.5,.59-.35,1.05-.83,1.38-1.44,.35-.63,.52-1.35,.52-2.16s-.17-1.55-.52-2.16c-.33-.61-.79-1.09-1.38-1.42-.59-.35-1.25-.52-2-.52s-1.41,.17-2,.52c-.59,.33-1.05,.81-1.4,1.42-.35,.61-.52,1.33-.52,2.16s.17,1.53,.52,2.16c.35,.61,.81,1.09,1.4,1.44,.59,.33,1.25,.5,1.98,.5Zm-1.3-10.98l2.74-2.48h1.9l-3.24,2.48h-1.4Zm8,16.12c-.43,0-.83-.06-1.22-.18-.4-.11-.73-.27-1-.5l.5-1.08c.43,.36,.97,.54,1.64,.54,.56,0,.99-.17,1.28-.5,.31-.33,.46-.83,.46-1.48v-11.28h1.42v11.28c0,.97-.27,1.75-.8,2.32-.52,.59-1.28,.88-2.28,.88Zm2.38-16.8c-.29,0-.54-.1-.74-.3-.2-.2-.3-.44-.3-.72s.1-.51,.3-.7c.2-.2,.45-.3,.74-.3s.54,.09,.74,.28c.2,.19,.3,.42,.3,.7s-.1,.54-.3,.74c-.19,.2-.43,.3-.74,.3Zm17.79,2.22c.85,0,1.59,.17,2.22,.5,.64,.32,1.13,.81,1.48,1.48,.36,.67,.54,1.51,.54,2.52v6.1h-1.42v-5.96c0-1.11-.27-1.94-.8-2.5-.52-.57-1.26-.86-2.22-.86-.72,0-1.35,.15-1.88,.46-.52,.29-.93,.73-1.22,1.3-.28,.56-.42,1.24-.42,2.04v5.52h-1.42v-5.96c0-1.11-.27-1.94-.8-2.5-.53-.57-1.28-.86-2.24-.86-.71,0-1.33,.15-1.86,.46-.53,.29-.95,.73-1.24,1.3-.28,.56-.42,1.24-.42,2.04v5.52h-1.42v-10.5h1.36v2.84l-.22-.5c.32-.76,.83-1.35,1.54-1.78,.72-.44,1.57-.66,2.54-.66,1.03,0,1.9,.26,2.62,.78,.72,.51,1.19,1.27,1.4,2.3l-.56-.22c.31-.85,.85-1.54,1.62-2.06,.79-.53,1.73-.8,2.82-.8Zm8.09,10.6v-10.5h1.42v10.5h-1.42Zm.72-12.82c-.29,0-.54-.1-.74-.3-.2-.2-.3-.44-.3-.72s.1-.51,.3-.7c.2-.2,.45-.3,.74-.3s.54,.09,.74,.28c.2,.19,.3,.42,.3,.7s-.1,.54-.3,.74c-.19,.2-.43,.3-.74,.3Zm11.23,12.82v-2.32l-.06-.38v-3.88c0-.89-.25-1.58-.76-2.06-.49-.48-1.23-.72-2.22-.72-.68,0-1.33,.11-1.94,.34-.61,.23-1.13,.53-1.56,.9l-.64-1.06c.53-.45,1.17-.8,1.92-1.04,.75-.25,1.53-.38,2.36-.38,1.36,0,2.41,.34,3.14,1.02,.75,.67,1.12,1.69,1.12,3.06v6.52h-1.36Zm-3.62,.1c-.79,0-1.47-.13-2.06-.38-.57-.27-1.01-.63-1.32-1.08-.31-.47-.46-1-.46-1.6,0-.55,.13-1.04,.38-1.48,.27-.45,.69-.81,1.28-1.08,.6-.28,1.4-.42,2.4-.42h3.62v1.06h-3.58c-1.01,0-1.72,.18-2.12,.54-.39,.36-.58,.81-.58,1.34,0,.6,.23,1.08,.7,1.44,.47,.36,1.12,.54,1.96,.54s1.49-.18,2.06-.54c.59-.37,1.01-.91,1.28-1.6l.32,.98c-.27,.69-.73,1.25-1.4,1.66-.65,.41-1.48,.62-2.48,.62Zm11.66,0c-.87,0-1.69-.12-2.46-.36-.77-.25-1.38-.57-1.82-.94l.64-1.12c.43,.32,.97,.6,1.64,.84,.67,.23,1.37,.34,2.1,.34,1,0,1.72-.15,2.16-.46,.44-.32,.66-.74,.66-1.26,0-.39-.13-.69-.38-.9-.24-.23-.56-.39-.96-.5-.4-.12-.85-.22-1.34-.3-.49-.08-.99-.17-1.48-.28-.48-.11-.92-.26-1.32-.46-.4-.21-.73-.5-.98-.86-.24-.36-.36-.84-.36-1.44s.16-1.09,.48-1.54c.32-.45,.79-.81,1.4-1.06,.63-.27,1.39-.4,2.28-.4,.68,0,1.36,.09,2.04,.28,.68,.17,1.24,.41,1.68,.7l-.62,1.14c-.47-.32-.97-.55-1.5-.68-.53-.15-1.07-.22-1.6-.22-.95,0-1.65,.17-2.1,.5-.44,.32-.66,.73-.66,1.24,0,.4,.12,.71,.36,.94,.25,.23,.58,.41,.98,.54,.41,.12,.86,.22,1.34,.3,.49,.08,.98,.18,1.46,.3,.49,.11,.94,.26,1.34,.46,.41,.19,.74,.46,.98,.82,.25,.35,.38,.81,.38,1.38,0,.61-.17,1.15-.52,1.6-.33,.44-.83,.79-1.48,1.04-.64,.24-1.42,.36-2.34,.36Zm10.27,0c-.99,0-1.75-.27-2.28-.8-.53-.53-.8-1.29-.8-2.26v-9.86h1.42v9.78c0,.61,.15,1.09,.46,1.42,.32,.33,.77,.5,1.36,.5,.63,0,1.15-.18,1.56-.54l.5,1.02c-.28,.25-.62,.44-1.02,.56-.39,.12-.79,.18-1.2,.18Zm-4.96-9.42v-1.18h6.5v1.18h-6.5Zm13.67,9.42c-1.01,0-1.93-.23-2.74-.68-.8-.47-1.43-1.1-1.9-1.9-.47-.81-.7-1.74-.7-2.78s.23-1.98,.7-2.78c.47-.8,1.1-1.43,1.9-1.88,.8-.45,1.71-.68,2.74-.68s1.96,.23,2.76,.68c.81,.45,1.45,1.08,1.9,1.88,.47,.8,.7,1.73,.7,2.78s-.23,1.97-.7,2.78c-.45,.8-1.09,1.43-1.9,1.9-.81,.45-1.73,.68-2.76,.68Zm0-1.26c.76,0,1.43-.17,2.02-.5,.59-.35,1.05-.83,1.38-1.44,.35-.63,.52-1.35,.52-2.16s-.17-1.55-.52-2.16c-.33-.61-.79-1.09-1.38-1.42-.59-.35-1.25-.52-2-.52s-1.41,.17-2,.52c-.59,.33-1.05,.81-1.4,1.42-.35,.61-.52,1.33-.52,2.16s.17,1.53,.52,2.16c.35,.61,.81,1.09,1.4,1.44,.59,.33,1.25,.5,1.98,.5Z" style="fill:#0e1e2e;"/><path d="M628.12,177.74c0,4.03-3.27,7.29-7.29,7.29s-7.29-3.27-7.29-7.29,3.27-7.29,7.29-7.29,7.29,3.27,7.29,7.29Zm-7.29,8.86c4.89,0,8.86-3.97,8.86-8.86s-3.97-8.86-8.86-8.86-8.86,3.97-8.86,8.86,3.97,8.86,8.86,8.86Z" style="fill:#0e1e2e; stroke:#0e1e2e;"/><circle cx="620.83" cy="177.74" r="4.71" style="fill:#0e1e2e;"/><path d="M592.02,205.22c-1.05,0-2.03-.17-2.94-.52-.89-.36-1.67-.86-2.34-1.5-.65-.65-1.17-1.41-1.54-2.26-.36-.87-.54-1.81-.54-2.84s.18-1.97,.54-2.82c.37-.87,.89-1.62,1.54-2.26,.67-.65,1.45-1.15,2.34-1.5,.89-.36,1.87-.54,2.94-.54s2.03,.18,2.92,.54c.89,.35,1.67,.84,2.32,1.48,.67,.64,1.18,1.39,1.54,2.26,.37,.87,.56,1.81,.56,2.84s-.19,1.97-.56,2.84c-.36,.87-.87,1.62-1.54,2.26-.65,.64-1.43,1.14-2.32,1.5-.89,.35-1.87,.52-2.92,.52Zm0-1.32c.84,0,1.61-.14,2.32-.42,.72-.29,1.34-.7,1.86-1.22,.53-.53,.95-1.15,1.24-1.84,.29-.71,.44-1.48,.44-2.32s-.15-1.61-.44-2.3c-.29-.71-.71-1.32-1.24-1.84-.52-.53-1.14-.94-1.86-1.22-.71-.29-1.48-.44-2.32-.44s-1.62,.15-2.34,.44c-.72,.28-1.35,.69-1.88,1.22-.52,.52-.93,1.13-1.24,1.84-.29,.69-.44,1.46-.44,2.3s.15,1.59,.44,2.3c.31,.71,.72,1.33,1.24,1.86,.53,.52,1.16,.93,1.88,1.22,.72,.28,1.5,.42,2.34,.42Zm10.36,1.2v-14.84h1.42v14.84h-1.42Zm8.19,.1c-.87,0-1.69-.12-2.46-.36-.77-.25-1.38-.57-1.82-.94l.64-1.12c.43,.32,.97,.6,1.64,.84,.67,.23,1.37,.34,2.1,.34,1,0,1.72-.15,2.16-.46,.44-.32,.66-.74,.66-1.26,0-.39-.13-.69-.38-.9-.24-.23-.56-.39-.96-.5-.4-.12-.85-.22-1.34-.3-.49-.08-.99-.17-1.48-.28-.48-.11-.92-.26-1.32-.46-.4-.21-.73-.5-.98-.86-.24-.36-.36-.84-.36-1.44s.16-1.09,.48-1.54c.32-.45,.79-.81,1.4-1.06,.63-.27,1.39-.4,2.28-.4,.68,0,1.36,.09,2.04,.28,.68,.17,1.24,.41,1.68,.7l-.62,1.14c-.47-.32-.97-.55-1.5-.68-.53-.15-1.07-.22-1.6-.22-.95,0-1.65,.17-2.1,.5-.44,.32-.66,.73-.66,1.24,0,.4,.12,.71,.36,.94,.25,.23,.58,.41,.98,.54,.41,.12,.86,.22,1.34,.3,.49,.08,.98,.18,1.46,.3,.49,.11,.94,.26,1.34,.46,.41,.19,.74,.46,.98,.82,.25,.35,.38,.81,.38,1.38,0,.61-.17,1.15-.52,1.6-.33,.44-.83,.79-1.48,1.04-.64,.24-1.42,.36-2.34,.36Zm5.8-.1v-.94l7-8.86,.3,.48h-7.18v-1.18h8.3v.92l-6.98,8.88-.36-.48h7.48v1.18h-8.56Zm14.67,.1c-.99,0-1.75-.27-2.28-.8-.53-.53-.8-1.29-.8-2.26v-9.86h1.42v9.78c0,.61,.15,1.09,.46,1.42,.32,.33,.77,.5,1.36,.5,.63,0,1.15-.18,1.56-.54l.5,1.02c-.28,.25-.62,.44-1.02,.56-.39,.12-.79,.18-1.2,.18Zm-4.96-9.42v-1.18h6.5v1.18h-6.5Zm9.65,13.3c-.49,0-.97-.08-1.42-.24-.44-.16-.82-.4-1.14-.72l.66-1.06c.27,.25,.55,.45,.86,.58,.32,.15,.67,.22,1.06,.22,.47,0,.87-.13,1.2-.4,.35-.25,.67-.71,.98-1.36l.68-1.54,.16-.22,4.32-9.74h1.4l-5.26,11.76c-.29,.68-.62,1.22-.98,1.62-.35,.4-.73,.68-1.14,.84-.41,.17-.87,.26-1.38,.26Zm2.8-3.68l-4.84-10.8h1.48l4.28,9.64-.92,1.16Zm13.32-10.9c.85,0,1.6,.17,2.24,.5,.65,.32,1.16,.81,1.52,1.48,.37,.67,.56,1.51,.56,2.52v6.1h-1.42v-5.96c0-1.11-.28-1.94-.84-2.5-.55-.57-1.32-.86-2.32-.86-.75,0-1.4,.15-1.96,.46-.55,.29-.97,.73-1.28,1.3-.29,.56-.44,1.24-.44,2.04v5.52h-1.42v-10.5h1.36v2.88l-.22-.54c.33-.76,.87-1.35,1.6-1.78,.73-.44,1.61-.66,2.62-.66Z" style="fill:#0e1e2e;"/><path d="M887.62,285.74c0,4.03-3.27,7.3-7.29,7.3s-7.29-3.27-7.29-7.3,3.27-7.29,7.29-7.29,7.29,3.27,7.29,7.29Zm-7.29,8.86c4.89,0,8.86-3.97,8.86-8.86s-3.97-8.86-8.86-8.86-8.86,3.97-8.86,8.86,3.97,8.86,8.86,8.86Z" style="fill:#0e1e2e; stroke:#0e1e2e;"/><circle cx="880.33" cy="285.74" r="4.71" style="fill:#0e1e2e;"/><path d="M837.3,313.1v-14h6.04c1.56,0,2.77,.31,3.62,.94,.87,.63,1.3,1.51,1.3,2.66,0,.76-.18,1.4-.54,1.92-.35,.52-.83,.91-1.44,1.18-.6,.27-1.26,.4-1.98,.4l.34-.48c.89,0,1.66,.14,2.3,.42,.65,.27,1.16,.67,1.52,1.22,.36,.53,.54,1.2,.54,2,0,1.19-.44,2.11-1.32,2.76-.87,.65-2.18,.98-3.94,.98h-6.44Zm1.48-1.22h4.94c1.23,0,2.17-.21,2.82-.62,.65-.43,.98-1.1,.98-2.02s-.33-1.57-.98-1.98c-.65-.43-1.59-.64-2.82-.64h-5.1v-1.22h4.62c1.12,0,1.99-.21,2.6-.64,.63-.43,.94-1.06,.94-1.9s-.31-1.49-.94-1.9c-.61-.43-1.48-.64-2.6-.64h-4.46v11.56Zm13.3,1.22v-10.5h1.42v10.5h-1.42Zm.72-12.82c-.29,0-.54-.1-.74-.3-.2-.2-.3-.44-.3-.72s.1-.51,.3-.7c.2-.2,.45-.3,.74-.3s.54,.09,.74,.28c.2,.19,.3,.42,.3,.7,0,.29-.1,.54-.3,.74-.19,.2-.43,.3-.74,.3Zm11.23,12.82v-2.32l-.06-.38v-3.88c0-.89-.25-1.58-.76-2.06-.49-.48-1.23-.72-2.22-.72-.68,0-1.33,.11-1.94,.34-.61,.23-1.13,.53-1.56,.9l-.64-1.06c.53-.45,1.17-.8,1.92-1.04,.75-.25,1.53-.38,2.36-.38,1.36,0,2.41,.34,3.14,1.02,.75,.67,1.12,1.69,1.12,3.06v6.52h-1.36Zm-3.62,.1c-.79,0-1.47-.13-2.06-.38-.57-.27-1.01-.63-1.32-1.08-.31-.47-.46-1-.46-1.6,0-.55,.13-1.04,.38-1.48,.27-.45,.69-.81,1.28-1.08,.6-.28,1.4-.42,2.4-.42h3.62v1.06h-3.58c-1.01,0-1.72,.18-2.12,.54-.39,.36-.58,.81-.58,1.34,0,.6,.23,1.08,.7,1.44,.47,.36,1.12,.54,1.96,.54s1.49-.18,2.06-.54c.59-.37,1.01-.91,1.28-1.6l.32,.98c-.27,.69-.73,1.25-1.4,1.66-.65,.41-1.48,.62-2.48,.62Zm8.94-.1v-14.84h1.42v14.84h-1.42Zm-1.38-4.86l-.66-.86,4.84-3.64,.64,.88-4.82,3.62Zm6.95,8.84c-.49,0-.97-.08-1.42-.24-.44-.16-.82-.4-1.14-.72l.66-1.06c.27,.25,.55,.45,.86,.58,.32,.15,.67,.22,1.06,.22,.47,0,.87-.13,1.2-.4,.35-.25,.67-.71,.98-1.36l.68-1.54,.16-.22,4.32-9.74h1.4l-5.26,11.76c-.29,.68-.62,1.22-.98,1.62-.35,.4-.73,.68-1.14,.84-.41,.17-.87,.26-1.38,.26Zm2.8-3.68l-4.84-10.8h1.48l4.28,9.64-.92,1.16Zm10.66-.2c-.87,0-1.69-.12-2.46-.36-.77-.25-1.38-.57-1.82-.94l.64-1.12c.43,.32,.97,.6,1.64,.84,.67,.23,1.37,.34,2.1,.34,1,0,1.72-.15,2.16-.46,.44-.32,.66-.74,.66-1.26,0-.39-.13-.69-.38-.9-.24-.23-.56-.39-.96-.5-.4-.12-.85-.22-1.34-.3-.49-.08-.99-.17-1.48-.28-.48-.11-.92-.26-1.32-.46-.4-.21-.73-.5-.98-.86-.24-.36-.36-.84-.36-1.44s.16-1.09,.48-1.54c.32-.45,.79-.81,1.4-1.06,.63-.27,1.39-.4,2.28-.4,.68,0,1.36,.09,2.04,.28,.68,.17,1.24,.41,1.68,.7l-.62,1.14c-.47-.32-.97-.55-1.5-.68-.53-.15-1.07-.22-1.6-.22-.95,0-1.65,.17-2.1,.5-.44,.32-.66,.73-.66,1.24,0,.4,.12,.71,.36,.94,.25,.23,.58,.41,.98,.54,.41,.12,.86,.22,1.34,.3,.49,.08,.98,.18,1.46,.3,.49,.11,.94,.26,1.34,.46,.41,.19,.74,.46,.98,.82,.25,.35,.38,.81,.38,1.38,0,.61-.17,1.15-.52,1.6-.33,.44-.83,.79-1.48,1.04-.64,.24-1.42,.36-2.34,.36Zm10.27,0c-.99,0-1.75-.27-2.28-.8-.53-.53-.8-1.29-.8-2.26v-9.86h1.42v9.78c0,.61,.15,1.09,.46,1.42,.32,.33,.77,.5,1.36,.5,.63,0,1.15-.18,1.56-.54l.5,1.02c-.28,.25-.62,.44-1.02,.56-.39,.12-.79,.18-1.2,.18Zm-4.96-9.42v-1.18h6.5v1.18h-6.5Zm13.67,9.42c-1.01,0-1.93-.23-2.74-.68-.8-.47-1.43-1.1-1.9-1.9-.47-.81-.7-1.74-.7-2.78s.23-1.98,.7-2.78c.47-.8,1.1-1.43,1.9-1.88,.8-.45,1.71-.68,2.74-.68s1.96,.23,2.76,.68c.81,.45,1.45,1.08,1.9,1.88,.47,.8,.7,1.73,.7,2.78s-.23,1.97-.7,2.78c-.45,.8-1.09,1.43-1.9,1.9-.81,.45-1.73,.68-2.76,.68Zm0-1.26c.76,0,1.43-.17,2.02-.5,.59-.35,1.05-.83,1.38-1.44,.35-.63,.52-1.35,.52-2.16s-.17-1.55-.52-2.16c-.33-.61-.79-1.09-1.38-1.42-.59-.35-1.25-.52-2-.52s-1.41,.17-2,.52c-.59,.33-1.05,.81-1.4,1.42-.35,.61-.52,1.33-.52,2.16s.17,1.53,.52,2.16c.35,.61,.81,1.09,1.4,1.44,.59,.33,1.25,.5,1.98,.5Zm9.38-1.56l.04-1.82,6.54-5.96h1.74l-4.62,4.42-.8,.68-2.9,2.68Zm-1.12,2.72v-14.84h1.42v14.84h-1.42Zm8.14,0l-4.38-5.46,.92-1.1,5.2,6.56h-1.74Z" style="fill:#0e1e2e;"/><path d="M351.62,273.74c0,4.03-3.27,7.3-7.3,7.3s-7.3-3.27-7.3-7.3,3.27-7.29,7.3-7.29,7.3,3.27,7.3,7.29Zm-7.3,8.86c4.89,0,8.86-3.97,8.86-8.86s-3.97-8.86-8.86-8.86-8.86,3.97-8.86,8.86,3.97,8.86,8.86,8.86Z" style="fill:#0e1e2e; stroke:#0e1e2e;"/><circle cx="344.33" cy="273.74" r="4.71" style="fill:#0e1e2e;"/><path d="M293.34,301.1v-14h6.04c1.56,0,2.77,.31,3.62,.94,.87,.63,1.3,1.51,1.3,2.66,0,.76-.18,1.4-.54,1.92-.35,.52-.83,.91-1.44,1.18-.6,.27-1.26,.4-1.98,.4l.34-.48c.89,0,1.66,.14,2.3,.42,.65,.27,1.16,.67,1.52,1.22,.36,.53,.54,1.2,.54,2,0,1.19-.44,2.11-1.32,2.76-.87,.65-2.18,.98-3.94,.98h-6.44Zm1.48-1.22h4.94c1.23,0,2.17-.21,2.82-.62,.65-.43,.98-1.1,.98-2.02s-.33-1.57-.98-1.98c-.65-.43-1.59-.64-2.82-.64h-5.1v-1.22h4.62c1.12,0,1.99-.21,2.6-.64,.63-.43,.94-1.06,.94-1.9s-.31-1.49-.94-1.9c-.61-.43-1.48-.64-2.6-.64h-4.46v11.56Zm13.38,5.2c-.49,0-.97-.08-1.42-.24-.44-.16-.82-.4-1.14-.72l.66-1.06c.27,.25,.55,.45,.86,.58,.32,.15,.67,.22,1.06,.22,.47,0,.87-.13,1.2-.4,.35-.25,.67-.71,.98-1.36l.68-1.54,.16-.22,4.32-9.74h1.4l-5.26,11.76c-.29,.68-.62,1.22-.98,1.62-.35,.4-.73,.68-1.14,.84-.41,.17-.87,.26-1.38,.26Zm2.8-3.68l-4.84-10.8h1.48l4.28,9.64-.92,1.16Zm11.85-.2c-1,0-1.9-.23-2.7-.68-.79-.45-1.41-1.08-1.86-1.88-.45-.81-.68-1.75-.68-2.8s.23-2,.68-2.8c.45-.8,1.07-1.42,1.86-1.86,.8-.45,1.7-.68,2.7-.68,.92,0,1.74,.21,2.46,.62,.73,.41,1.31,1.02,1.74,1.82,.44,.79,.66,1.75,.66,2.9s-.21,2.1-.64,2.9c-.43,.8-1.01,1.41-1.74,1.84-.72,.41-1.55,.62-2.48,.62Zm.1-1.26c.75,0,1.41-.17,2-.5,.6-.35,1.07-.83,1.4-1.44,.35-.63,.52-1.35,.52-2.16s-.17-1.55-.52-2.16c-.33-.61-.8-1.09-1.4-1.42-.59-.35-1.25-.52-2-.52s-1.39,.17-1.98,.52c-.59,.33-1.05,.81-1.4,1.42-.35,.61-.52,1.33-.52,2.16s.17,1.53,.52,2.16c.35,.61,.81,1.09,1.4,1.44,.59,.33,1.25,.5,1.98,.5Zm3.96,1.16v-3.16l.14-2.12-.2-2.12v-7.44h1.42v14.84h-1.36Zm9.79,3.98c-.96,0-1.88-.14-2.76-.42s-1.59-.68-2.14-1.2l.72-1.08c.49,.44,1.1,.79,1.82,1.04,.73,.27,1.51,.4,2.32,.4,1.33,0,2.31-.31,2.94-.94,.63-.61,.94-1.57,.94-2.88v-2.62l.2-1.8-.14-1.8v-3.18h1.36v9.22c0,1.81-.45,3.14-1.34,3.98-.88,.85-2.19,1.28-3.92,1.28Zm-.26-4.38c-1,0-1.9-.21-2.7-.64-.8-.44-1.43-1.05-1.9-1.82-.45-.77-.68-1.66-.68-2.66s.23-1.88,.68-2.64c.47-.77,1.1-1.37,1.9-1.8,.8-.43,1.7-.64,2.7-.64,.93,0,1.77,.19,2.52,.58,.75,.39,1.34,.96,1.78,1.72,.44,.76,.66,1.69,.66,2.78s-.22,2.02-.66,2.78c-.44,.76-1.03,1.34-1.78,1.74-.75,.4-1.59,.6-2.52,.6Zm.14-1.26c.77,0,1.46-.16,2.06-.48,.6-.33,1.07-.79,1.42-1.36,.35-.59,.52-1.26,.52-2.02s-.17-1.43-.52-2c-.35-.57-.82-1.02-1.42-1.34-.6-.33-1.29-.5-2.06-.5s-1.45,.17-2.06,.5c-.6,.32-1.07,.77-1.42,1.34-.33,.57-.5,1.24-.5,2s.17,1.43,.5,2.02c.35,.57,.82,1.03,1.42,1.36,.61,.32,1.3,.48,2.06,.48Zm13.61,1.76c-1.01,0-1.93-.23-2.74-.68-.8-.47-1.43-1.1-1.9-1.9-.47-.81-.7-1.74-.7-2.78s.23-1.98,.7-2.78c.47-.8,1.1-1.43,1.9-1.88,.8-.45,1.71-.68,2.74-.68s1.96,.23,2.76,.68c.81,.45,1.45,1.08,1.9,1.88,.47,.8,.7,1.73,.7,2.78s-.23,1.97-.7,2.78c-.45,.8-1.09,1.43-1.9,1.9-.81,.45-1.73,.68-2.76,.68Zm0-1.26c.76,0,1.43-.17,2.02-.5,.59-.35,1.05-.83,1.38-1.44,.35-.63,.52-1.35,.52-2.16s-.17-1.55-.52-2.16c-.33-.61-.79-1.09-1.38-1.42-.59-.35-1.25-.52-2-.52s-1.41,.17-2,.52c-.59,.33-1.05,.81-1.4,1.42-.35,.61-.52,1.33-.52,2.16s.17,1.53,.52,2.16c.35,.61,.81,1.09,1.4,1.44,.59,.33,1.25,.5,1.98,.5Zm11.08,1.26c-.87,0-1.69-.12-2.46-.36-.77-.25-1.38-.57-1.82-.94l.64-1.12c.43,.32,.97,.6,1.64,.84,.67,.23,1.37,.34,2.1,.34,1,0,1.72-.15,2.16-.46,.44-.32,.66-.74,.66-1.26,0-.39-.13-.69-.38-.9-.24-.23-.56-.39-.96-.5-.4-.12-.85-.22-1.34-.3-.49-.08-.99-.17-1.48-.28-.48-.11-.92-.26-1.32-.46-.4-.21-.73-.5-.98-.86-.24-.36-.36-.84-.36-1.44s.16-1.09,.48-1.54c.32-.45,.79-.81,1.4-1.06,.63-.27,1.39-.4,2.28-.4,.68,0,1.36,.09,2.04,.28,.68,.17,1.24,.41,1.68,.7l-.62,1.14c-.47-.32-.97-.55-1.5-.68-.53-.15-1.07-.22-1.6-.22-.95,0-1.65,.17-2.1,.5-.44,.32-.66,.73-.66,1.24,0,.4,.12,.71,.36,.94,.25,.23,.58,.41,.98,.54,.41,.12,.86,.22,1.34,.3,.49,.08,.98,.18,1.46,.3,.49,.11,.94,.26,1.34,.46,.41,.19,.74,.46,.98,.82,.25,.35,.38,.81,.38,1.38,0,.61-.17,1.15-.52,1.6-.33,.44-.83,.79-1.48,1.04-.64,.24-1.42,.36-2.34,.36Zm5.8-.1v-.94l7-8.86,.3,.48h-7.18v-1.18h8.3v.92l-6.98,8.88-.36-.48h7.48v1.18h-8.56Zm15.54,.1c-1.04,0-1.97-.23-2.8-.68-.81-.47-1.45-1.1-1.92-1.9-.47-.81-.7-1.74-.7-2.78s.23-1.98,.7-2.78c.47-.8,1.11-1.43,1.92-1.88,.83-.45,1.76-.68,2.8-.68,.89,0,1.7,.17,2.42,.52,.72,.35,1.29,.87,1.7,1.56l-1.06,.72c-.36-.53-.81-.93-1.34-1.18-.53-.25-1.11-.38-1.74-.38-.75,0-1.42,.17-2.02,.52-.6,.33-1.07,.81-1.42,1.42-.35,.61-.52,1.33-.52,2.16s.17,1.55,.52,2.16c.35,.61,.82,1.09,1.42,1.44,.6,.33,1.27,.5,2.02,.5,.63,0,1.21-.13,1.74-.38,.53-.25,.98-.64,1.34-1.16l1.06,.72c-.41,.68-.98,1.2-1.7,1.56-.72,.35-1.53,.52-2.42,.52Zm5.61-.1v-.94l7-8.86,.3,.48h-7.18v-1.18h8.3v.92l-6.98,8.88-.36-.48h7.48v1.18h-8.56Z" style="fill:#0e1e2e;"/><path d="M473.4,309.46c0,4.03-3.27,7.29-7.3,7.29s-7.29-3.27-7.29-7.29,3.27-7.29,7.29-7.29,7.3,3.27,7.3,7.29Zm-7.3,8.86c4.89,0,8.86-3.97,8.86-8.86s-3.97-8.86-8.86-8.86-8.86,3.97-8.86,8.86,3.97,8.86,8.86,8.86Z" style="fill:#0e1e2e; stroke:#0e1e2e;"/><circle cx="466.11" cy="309.46" r="4.71" style="fill:#0e1e2e;"/><path d="M442.15,336.82v-12.72h-4.92v-1.28h11.32v1.28h-4.92v12.72h-1.48Zm11.65,.1c-1.01,0-1.93-.23-2.74-.68-.8-.47-1.43-1.1-1.9-1.9-.47-.81-.7-1.74-.7-2.78s.23-1.98,.7-2.78c.47-.8,1.1-1.43,1.9-1.88,.8-.45,1.71-.68,2.74-.68s1.96,.23,2.76,.68c.81,.45,1.45,1.08,1.9,1.88,.47,.8,.7,1.73,.7,2.78s-.23,1.97-.7,2.78c-.45,.8-1.09,1.43-1.9,1.9-.81,.45-1.73,.68-2.76,.68Zm0-1.26c.76,0,1.43-.17,2.02-.5,.59-.35,1.05-.83,1.38-1.44,.35-.63,.52-1.35,.52-2.16s-.17-1.55-.52-2.16c-.33-.61-.79-1.09-1.38-1.42-.59-.35-1.25-.52-2-.52s-1.41,.17-2,.52c-.59,.33-1.05,.81-1.4,1.42-.35,.61-.52,1.33-.52,2.16s.17,1.53,.52,2.16c.35,.61,.81,1.09,1.4,1.44,.59,.33,1.25,.5,1.98,.5Zm8.26,1.16v-10.5h1.36v2.86l-.14-.5c.29-.8,.79-1.41,1.48-1.82,.69-.43,1.55-.64,2.58-.64v1.38h-.16c-.05-.01-.11-.02-.16-.02-1.11,0-1.97,.34-2.6,1.02-.63,.67-.94,1.62-.94,2.86v5.36h-1.42Zm12.37,.1c-.89,0-1.67-.17-2.34-.5-.67-.33-1.19-.83-1.56-1.5-.36-.67-.54-1.5-.54-2.5v-6.1h1.42v5.94c0,1.12,.27,1.97,.82,2.54,.56,.56,1.34,.84,2.34,.84,.73,0,1.37-.15,1.9-.44,.55-.31,.96-.75,1.24-1.32,.29-.57,.44-1.26,.44-2.06v-5.5h1.42v10.5h-1.36v-2.88l.22,.52c-.33,.77-.85,1.38-1.56,1.82-.69,.43-1.51,.64-2.44,.64Zm14.46-10.7c.85,0,1.6,.17,2.24,.5,.65,.32,1.16,.81,1.52,1.48,.37,.67,.56,1.51,.56,2.52v6.1h-1.42v-5.96c0-1.11-.28-1.94-.84-2.5-.55-.57-1.32-.86-2.32-.86-.75,0-1.4,.15-1.96,.46-.55,.29-.97,.73-1.28,1.3-.29,.56-.44,1.24-.44,2.04v5.52h-1.42v-10.5h1.36v2.88l-.22-.54c.33-.76,.87-1.35,1.6-1.78,.73-.44,1.61-.66,2.62-.66Zm-1.84-1.54l2.74-2.48h1.9l-3.24,2.48h-1.4Z" style="fill:#0e1e2e;"/><path d="M687.62,427.34c0,4.03-3.27,7.3-7.29,7.3s-7.29-3.27-7.29-7.3,3.27-7.29,7.29-7.29,7.29,3.27,7.29,7.29Zm-7.29,8.86c4.89,0,8.86-3.97,8.86-8.86s-3.97-8.86-8.86-8.86-8.86,3.97-8.86,8.86,3.97,8.86,8.86,8.86Z" style="fill:#0e1e2e; stroke:#0e1e2e;"/><circle cx="680.33" cy="427.34" r="4.71" style="fill:#0e1e2e;"/><path d="M635.01,454.7l-4.72-14h1.52l4.42,13.18h-.76l4.56-13.18h1.36l4.5,13.18h-.72l4.46-13.18h1.42l-4.72,14h-1.56l-4.3-12.5h.4l-4.32,12.5h-1.54Zm24.23,0v-2.32l-.06-.38v-3.88c0-.89-.25-1.58-.76-2.06-.49-.48-1.23-.72-2.22-.72-.68,0-1.33,.11-1.94,.34-.61,.23-1.13,.53-1.56,.9l-.64-1.06c.53-.45,1.17-.8,1.92-1.04,.75-.25,1.53-.38,2.36-.38,1.36,0,2.41,.34,3.14,1.02,.75,.67,1.12,1.69,1.12,3.06v6.52h-1.36Zm-3.62,.1c-.79,0-1.47-.13-2.06-.38-.57-.27-1.01-.63-1.32-1.08-.31-.47-.46-1-.46-1.6,0-.55,.13-1.04,.38-1.48,.27-.45,.69-.81,1.28-1.08,.6-.28,1.4-.42,2.4-.42h3.62v1.06h-3.58c-1.01,0-1.72,.18-2.12,.54-.39,.36-.58,.81-.58,1.34,0,.6,.23,1.08,.7,1.44,.47,.36,1.12,.54,1.96,.54s1.49-.18,2.06-.54c.59-.37,1.01-.91,1.28-1.6l.32,.98c-.27,.69-.73,1.25-1.4,1.66-.65,.41-1.48,.62-2.48,.62Zm8.84-.1v-10.5h1.36v2.86l-.14-.5c.29-.8,.79-1.41,1.48-1.82,.69-.43,1.55-.64,2.58-.64v1.38h-.16c-.05-.01-.11-.02-.16-.02-1.11,0-1.97,.34-2.6,1.02-.63,.67-.94,1.62-.94,2.86v5.36h-1.42Zm10.81,.1c-.87,0-1.69-.12-2.46-.36-.77-.25-1.38-.57-1.82-.94l.64-1.12c.43,.32,.97,.6,1.64,.84,.67,.23,1.37,.34,2.1,.34,1,0,1.72-.15,2.16-.46,.44-.32,.66-.74,.66-1.26,0-.39-.13-.69-.38-.9-.24-.23-.56-.39-.96-.5-.4-.12-.85-.22-1.34-.3-.49-.08-.99-.17-1.48-.28-.48-.11-.92-.26-1.32-.46-.4-.21-.73-.5-.98-.86-.24-.36-.36-.84-.36-1.44s.16-1.09,.48-1.54c.32-.45,.79-.81,1.4-1.06,.63-.27,1.39-.4,2.28-.4,.68,0,1.36,.09,2.04,.28,.68,.17,1.24,.41,1.68,.7l-.62,1.14c-.47-.32-.97-.55-1.5-.68-.53-.15-1.07-.22-1.6-.22-.95,0-1.65,.17-2.1,.5-.44,.32-.66,.73-.66,1.24,0,.4,.12,.71,.36,.94,.25,.23,.58,.41,.98,.54,.41,.12,.86,.22,1.34,.3,.49,.08,.98,.18,1.46,.3,.49,.11,.94,.26,1.34,.46,.41,.19,.74,.46,.98,.82,.25,.35,.38,.81,.38,1.38,0,.61-.17,1.15-.52,1.6-.33,.44-.83,.79-1.48,1.04-.64,.24-1.42,.36-2.34,.36Zm5.8-.1v-.94l7-8.86,.3,.48h-7.18v-1.18h8.3v.92l-6.98,8.88-.36-.48h7.48v1.18h-8.56Zm17.93,0v-2.32l-.06-.38v-3.88c0-.89-.25-1.58-.76-2.06-.49-.48-1.23-.72-2.22-.72-.68,0-1.33,.11-1.94,.34-.61,.23-1.13,.53-1.56,.9l-.64-1.06c.53-.45,1.17-.8,1.92-1.04,.75-.25,1.53-.38,2.36-.38,1.36,0,2.41,.34,3.14,1.02,.75,.67,1.12,1.69,1.12,3.06v6.52h-1.36Zm-3.62,.1c-.79,0-1.47-.13-2.06-.38-.57-.27-1.01-.63-1.32-1.08-.31-.47-.46-1-.46-1.6,0-.55,.13-1.04,.38-1.48,.27-.45,.69-.81,1.28-1.08,.6-.28,1.4-.42,2.4-.42h3.62v1.06h-3.58c-1.01,0-1.72,.18-2.12,.54-.39,.36-.58,.81-.58,1.34,0,.6,.23,1.08,.7,1.44,.47,.36,1.12,.54,1.96,.54s1.49-.18,2.06-.54c.59-.37,1.01-.91,1.28-1.6l.32,.98c-.27,.69-.73,1.25-1.4,1.66-.65,.41-1.48,.62-2.48,.62Zm10.78-.1l-3.96-10.5h1.36l3.6,9.74h-.62l3.7-9.74h1.22l3.66,9.74h-.62l3.66-9.74h1.3l-3.98,10.5h-1.34l-3.52-9.16h.42l-3.54,9.16h-1.34Zm21.71,0v-2.32l-.06-.38v-3.88c0-.89-.25-1.58-.76-2.06-.49-.48-1.23-.72-2.22-.72-.68,0-1.33,.11-1.94,.34-.61,.23-1.13,.53-1.56,.9l-.64-1.06c.53-.45,1.17-.8,1.92-1.04,.75-.25,1.53-.38,2.36-.38,1.36,0,2.41,.34,3.14,1.02,.75,.67,1.12,1.69,1.12,3.06v6.52h-1.36Zm-3.62,.1c-.79,0-1.47-.13-2.06-.38-.57-.27-1.01-.63-1.32-1.08-.31-.47-.46-1-.46-1.6,0-.55,.13-1.04,.38-1.48,.27-.45,.69-.81,1.28-1.08,.6-.28,1.4-.42,2.4-.42h3.62v1.06h-3.58c-1.01,0-1.72,.18-2.12,.54-.39,.36-.58,.81-.58,1.34,0,.6,.23,1.08,.7,1.44,.47,.36,1.12,.54,1.96,.54s1.49-.18,2.06-.54c.59-.37,1.01-.91,1.28-1.6l.32,.98c-.27,.69-.73,1.25-1.4,1.66-.65,.41-1.48,.62-2.48,.62Z" style="fill:#0e1e2e;"/><path d="M533.62,503.43c0,4.03-3.27,7.3-7.29,7.3s-7.29-3.27-7.29-7.3,3.27-7.29,7.29-7.29,7.29,3.27,7.29,7.29Zm-7.29,8.86c4.89,0,8.86-3.97,8.86-8.86s-3.97-8.86-8.86-8.86-8.86,3.97-8.86,8.86,3.97,8.86,8.86,8.86Z" style="fill:#0e1e2e; stroke:#0e1e2e;"/><circle cx="526.33" cy="503.43" r="4.71" style="fill:#0e1e2e;"/><path d="M504.69,530.79v-14h1.48v12.72h7.84v1.28h-9.32Zm-1.34-5.18l-.66-.84,5.84-4.4,.68,.86-5.86,4.38Zm16.94,5.28c-1.01,0-1.93-.23-2.74-.68-.8-.47-1.43-1.1-1.9-1.9-.47-.81-.7-1.74-.7-2.78s.23-1.98,.7-2.78c.47-.8,1.1-1.43,1.9-1.88,.8-.45,1.71-.68,2.74-.68s1.96,.23,2.76,.68c.81,.45,1.45,1.08,1.9,1.88,.47,.8,.7,1.73,.7,2.78s-.23,1.97-.7,2.78c-.45,.8-1.09,1.43-1.9,1.9-.81,.45-1.73,.68-2.76,.68Zm0-1.26c.76,0,1.43-.17,2.02-.5,.59-.35,1.05-.83,1.38-1.44,.35-.63,.52-1.35,.52-2.16s-.17-1.55-.52-2.16c-.33-.61-.79-1.09-1.38-1.42-.59-.35-1.25-.52-2-.52s-1.41,.17-2,.52c-.59,.33-1.05,.81-1.4,1.42-.35,.61-.52,1.33-.52,2.16s.17,1.53,.52,2.16c.35,.61,.81,1.09,1.4,1.44,.59,.33,1.25,.5,1.98,.5Zm-1.3-10.98l2.74-2.48h1.9l-3.24,2.48h-1.4Zm13.74,12.24c-1,0-1.9-.23-2.7-.68-.79-.45-1.41-1.08-1.86-1.88-.45-.81-.68-1.75-.68-2.8s.23-2,.68-2.8c.45-.8,1.07-1.42,1.86-1.86,.8-.45,1.7-.68,2.7-.68,.92,0,1.74,.21,2.46,.62,.73,.41,1.31,1.02,1.74,1.82,.44,.79,.66,1.75,.66,2.9s-.21,2.1-.64,2.9c-.43,.8-1.01,1.41-1.74,1.84-.72,.41-1.55,.62-2.48,.62Zm.1-1.26c.75,0,1.41-.17,2-.5,.6-.35,1.07-.83,1.4-1.44,.35-.63,.52-1.35,.52-2.16s-.17-1.55-.52-2.16c-.33-.61-.8-1.09-1.4-1.42-.59-.35-1.25-.52-2-.52s-1.39,.17-1.98,.52c-.59,.33-1.05,.81-1.4,1.42-.35,.61-.52,1.33-.52,2.16s.17,1.53,.52,2.16c.35,.61,.81,1.09,1.4,1.44,.59,.33,1.25,.5,1.98,.5Zm3.96,1.16v-3.16l.14-2.12-.2-2.12v-7.44h1.42v14.84h-1.36Zm4.17,0v-.94l7-8.86,.3,.48h-7.18v-1.18h8.3v.92l-6.98,8.88-.36-.48h7.48v1.18h-8.56Zm2.98-12.14l2.74-2.48h1.9l-3.24,2.48h-1.4Z" style="fill:#0e1e2e;"/><path d="M290.12,599.74c0,4.03-3.27,7.29-7.3,7.29s-7.3-3.27-7.3-7.29,3.27-7.3,7.3-7.3,7.3,3.27,7.3,7.3Zm-7.3,8.86c4.89,0,8.86-3.97,8.86-8.86s-3.97-8.86-8.86-8.86-8.86,3.97-8.86,8.86,3.97,8.86,8.86,8.86Z" style="fill:#0e1e2e; stroke:#0e1e2e;"/><circle cx="282.83" cy="599.74" r="4.71" style="fill:#0e1e2e;"/><path d="M244.43,627.1l-4.72-14h1.52l4.42,13.18h-.76l4.56-13.18h1.36l4.5,13.18h-.72l4.46-13.18h1.42l-4.72,14h-1.56l-4.3-12.5h.4l-4.32,12.5h-1.54Zm18.04,0v-10.5h1.36v2.86l-.14-.5c.29-.8,.79-1.41,1.48-1.82,.69-.43,1.55-.64,2.58-.64v1.38h-.16c-.05-.01-.11-.02-.16-.02-1.11,0-1.97,.34-2.6,1.02-.63,.67-.94,1.62-.94,2.86v5.36h-1.42Zm12.05,.1c-1.01,0-1.93-.23-2.74-.68-.8-.47-1.43-1.1-1.9-1.9-.47-.81-.7-1.74-.7-2.78s.23-1.98,.7-2.78c.47-.8,1.1-1.43,1.9-1.88,.8-.45,1.71-.68,2.74-.68s1.96,.23,2.76,.68c.81,.45,1.45,1.08,1.9,1.88,.47,.8,.7,1.73,.7,2.78s-.23,1.97-.7,2.78c-.45,.8-1.09,1.43-1.9,1.9-.81,.45-1.73,.68-2.76,.68Zm0-1.26c.76,0,1.43-.17,2.02-.5,.59-.35,1.05-.83,1.38-1.44,.35-.63,.52-1.35,.52-2.16s-.17-1.55-.52-2.16c-.33-.61-.79-1.09-1.38-1.42-.59-.35-1.25-.52-2-.52s-1.41,.17-2,.52c-.59,.33-1.05,.81-1.4,1.42-.35,.61-.52,1.33-.52,2.16s.17,1.53,.52,2.16c.35,.61,.81,1.09,1.4,1.44,.59,.33,1.25,.5,1.98,.5Zm12.62,1.26c-1.04,0-1.97-.23-2.8-.68-.81-.47-1.45-1.1-1.92-1.9-.47-.81-.7-1.74-.7-2.78s.23-1.98,.7-2.78c.47-.8,1.11-1.43,1.92-1.88,.83-.45,1.76-.68,2.8-.68,.89,0,1.7,.17,2.42,.52,.72,.35,1.29,.87,1.7,1.56l-1.06,.72c-.36-.53-.81-.93-1.34-1.18-.53-.25-1.11-.38-1.74-.38-.75,0-1.42,.17-2.02,.52-.6,.33-1.07,.81-1.42,1.42-.35,.61-.52,1.33-.52,2.16s.17,1.55,.52,2.16c.35,.61,.82,1.09,1.42,1.44,.6,.33,1.27,.5,2.02,.5,.63,0,1.21-.13,1.74-.38,.53-.25,.98-.64,1.34-1.16l1.06,.72c-.41,.68-.98,1.2-1.7,1.56-.72,.35-1.53,.52-2.42,.52Zm6.85-.1v-14.84h1.42v14.84h-1.42Zm-1.38-4.86l-.66-.86,4.84-3.64,.64,.88-4.82,3.62Zm13.45,4.86v-2.32l-.06-.38v-3.88c0-.89-.25-1.58-.76-2.06-.49-.48-1.23-.72-2.22-.72-.68,0-1.33,.11-1.94,.34-.61,.23-1.13,.53-1.56,.9l-.64-1.06c.53-.45,1.17-.8,1.92-1.04,.75-.25,1.53-.38,2.36-.38,1.36,0,2.41,.34,3.14,1.02,.75,.67,1.12,1.69,1.12,3.06v6.52h-1.36Zm-3.62,.1c-.79,0-1.47-.13-2.06-.38-.57-.27-1.01-.63-1.32-1.08-.31-.47-.46-1-.46-1.6,0-.55,.13-1.04,.38-1.48,.27-.45,.69-.81,1.28-1.08,.6-.28,1.4-.42,2.4-.42h3.62v1.06h-3.58c-1.01,0-1.72,.18-2.12,.54-.39,.36-.58,.81-.58,1.34,0,.6,.23,1.08,.7,1.44,.47,.36,1.12,.54,1.96,.54s1.49-.18,2.06-.54c.59-.37,1.01-.91,1.28-1.6l.32,.98c-.27,.69-.73,1.25-1.4,1.66-.65,.41-1.48,.62-2.48,.62Zm10.78-.1l-3.96-10.5h1.36l3.6,9.74h-.62l3.7-9.74h1.22l3.66,9.74h-.62l3.66-9.74h1.3l-3.98,10.5h-1.34l-3.52-9.16h.42l-3.54,9.16h-1.34Z" style="fill:#0e1e2e;"/><path d="M379.34,681.74c0,4.03-3.27,7.29-7.29,7.29s-7.29-3.27-7.29-7.29,3.27-7.3,7.29-7.3,7.29,3.27,7.29,7.3Zm-7.29,8.86c4.89,0,8.86-3.97,8.86-8.86s-3.97-8.86-8.86-8.86-8.86,3.97-8.86,8.86,3.97,8.86,8.86,8.86Z" style="fill:#0e1e2e; stroke:#0e1e2e;"/><circle cx="372.05" cy="681.74" r="4.71" style="fill:#0e1e2e;"/><path d="M350.29,709.22c-1.05,0-2.03-.17-2.94-.52-.89-.36-1.67-.86-2.34-1.5-.65-.65-1.17-1.41-1.54-2.26-.36-.87-.54-1.81-.54-2.84s.18-1.97,.54-2.82c.37-.87,.89-1.62,1.54-2.26,.67-.65,1.45-1.15,2.34-1.5,.89-.36,1.87-.54,2.94-.54s2.03,.18,2.92,.54c.89,.35,1.67,.84,2.32,1.48,.67,.64,1.18,1.39,1.54,2.26,.37,.87,.56,1.81,.56,2.84s-.19,1.97-.56,2.84c-.36,.87-.87,1.62-1.54,2.26-.65,.64-1.43,1.14-2.32,1.5-.89,.35-1.87,.52-2.92,.52Zm0-1.32c.84,0,1.61-.14,2.32-.42,.72-.29,1.34-.7,1.86-1.22,.53-.53,.95-1.15,1.24-1.84,.29-.71,.44-1.48,.44-2.32s-.15-1.61-.44-2.3c-.29-.71-.71-1.32-1.24-1.84-.52-.53-1.14-.94-1.86-1.22-.71-.29-1.48-.44-2.32-.44s-1.62,.15-2.34,.44c-.72,.28-1.35,.69-1.88,1.22-.52,.52-.93,1.13-1.24,1.84-.29,.69-.44,1.46-.44,2.3s.15,1.59,.44,2.3c.31,.71,.72,1.33,1.24,1.86,.53,.52,1.16,.93,1.88,1.22,.72,.28,1.5,.42,2.34,.42Zm15.78,1.3c-.91,0-1.73-.21-2.46-.62-.73-.43-1.32-1.03-1.76-1.82-.43-.8-.64-1.77-.64-2.92s.21-2.11,.64-2.9c.43-.8,1.01-1.41,1.74-1.82,.73-.41,1.56-.62,2.48-.62,1,0,1.89,.23,2.68,.68,.8,.44,1.43,1.07,1.88,1.88,.45,.8,.68,1.73,.68,2.78s-.23,2-.68,2.8c-.45,.8-1.08,1.43-1.88,1.88-.79,.45-1.68,.68-2.68,.68Zm-5.42,3.78v-14.38h1.36v3.16l-.14,2.1,.2,2.12v7h-1.42Zm5.32-5.04c.75,0,1.41-.17,2-.5,.59-.35,1.05-.83,1.4-1.44,.35-.63,.52-1.35,.52-2.16s-.17-1.53-.52-2.14c-.35-.61-.81-1.09-1.4-1.44-.59-.35-1.25-.52-2-.52s-1.42,.17-2.02,.52c-.59,.35-1.05,.83-1.4,1.44-.33,.61-.5,1.33-.5,2.14s.17,1.53,.5,2.16c.35,.61,.81,1.09,1.4,1.44,.6,.33,1.27,.5,2.02,.5Zm12.52,1.26c-1.01,0-1.93-.23-2.74-.68-.8-.47-1.43-1.1-1.9-1.9-.47-.81-.7-1.74-.7-2.78s.23-1.98,.7-2.78c.47-.8,1.1-1.43,1.9-1.88,.8-.45,1.71-.68,2.74-.68s1.96,.23,2.76,.68c.81,.45,1.45,1.08,1.9,1.88,.47,.8,.7,1.73,.7,2.78s-.23,1.97-.7,2.78c-.45,.8-1.09,1.43-1.9,1.9-.81,.45-1.73,.68-2.76,.68Zm0-1.26c.76,0,1.43-.17,2.02-.5,.59-.35,1.05-.83,1.38-1.44,.35-.63,.52-1.35,.52-2.16s-.17-1.55-.52-2.16c-.33-.61-.79-1.09-1.38-1.42-.59-.35-1.25-.52-2-.52s-1.41,.17-2,.52c-.59,.33-1.05,.81-1.4,1.42-.35,.61-.52,1.33-.52,2.16s.17,1.53,.52,2.16c.35,.61,.81,1.09,1.4,1.44,.59,.33,1.25,.5,1.98,.5Zm8.26,1.16v-14.84h1.42v14.84h-1.42Zm9.83,.1c-1.09,0-2.05-.23-2.88-.68-.83-.47-1.47-1.1-1.94-1.9-.47-.81-.7-1.74-.7-2.78s.22-1.96,.66-2.76c.45-.8,1.07-1.43,1.84-1.88,.79-.47,1.67-.7,2.64-.7s1.86,.23,2.62,.68c.77,.44,1.38,1.07,1.82,1.88,.44,.8,.66,1.73,.66,2.78,0,.07,0,.14-.02,.22v.22h-9.14v-1.06h8.38l-.56,.42c0-.76-.17-1.43-.5-2.02-.32-.6-.76-1.07-1.32-1.4-.56-.33-1.21-.5-1.94-.5s-1.37,.17-1.94,.5c-.57,.33-1.02,.8-1.34,1.4s-.48,1.29-.48,2.06v.22c0,.8,.17,1.51,.52,2.12,.36,.6,.85,1.07,1.48,1.42,.64,.33,1.37,.5,2.18,.5,.64,0,1.23-.11,1.78-.34,.56-.23,1.04-.57,1.44-1.04l.8,.92c-.47,.56-1.05,.99-1.76,1.28-.69,.29-1.46,.44-2.3,.44Z" style="fill:#0e1e2e;"/><path d="M485.4,744.74c0,4.03-3.27,7.29-7.3,7.29s-7.29-3.27-7.29-7.29,3.27-7.3,7.29-7.3,7.3,3.27,7.3,7.3Zm-7.3,8.86c4.89,0,8.86-3.97,8.86-8.86s-3.97-8.86-8.86-8.86-8.86,3.97-8.86,8.86,3.97,8.86,8.86,8.86Z" style="fill:#0e1e2e; stroke:#0e1e2e;"/><circle cx="478.11" cy="744.74" r="4.71" style="fill:#0e1e2e;"/><path d="M435.74,768.62l-.06-1.8,8.48-8.72h1.7l-6.18,6.48-.84,.9-3.1,3.14Zm-1.28,3.48v-14h1.48v14h-1.48Zm10.06,0l-6.04-6.96,1-1.08,6.8,8.04h-1.76Zm10.17,0v-2.32l-.06-.38v-3.88c0-.89-.25-1.58-.76-2.06-.49-.48-1.23-.72-2.22-.72-.68,0-1.33,.11-1.94,.34-.61,.23-1.13,.53-1.56,.9l-.64-1.06c.53-.45,1.17-.8,1.92-1.04,.75-.25,1.53-.38,2.36-.38,1.36,0,2.41,.34,3.14,1.02,.75,.67,1.12,1.69,1.12,3.06v6.52h-1.36Zm-3.62,.1c-.79,0-1.47-.13-2.06-.38-.57-.27-1.01-.63-1.32-1.08-.31-.47-.46-1-.46-1.6,0-.55,.13-1.04,.38-1.48,.27-.45,.69-.81,1.28-1.08,.6-.28,1.4-.42,2.4-.42h3.62v1.06h-3.58c-1.01,0-1.72,.18-2.12,.54-.39,.36-.58,.81-.58,1.34,0,.6,.23,1.08,.7,1.44,.47,.36,1.12,.54,1.96,.54s1.49-.18,2.06-.54c.59-.37,1.01-.91,1.28-1.6l.32,.98c-.27,.69-.73,1.25-1.4,1.66-.65,.41-1.48,.62-2.48,.62Zm12.16,0c-.99,0-1.75-.27-2.28-.8-.53-.53-.8-1.29-.8-2.26v-9.86h1.42v9.78c0,.61,.15,1.09,.46,1.42,.32,.33,.77,.5,1.36,.5,.63,0,1.15-.18,1.56-.54l.5,1.02c-.28,.25-.62,.44-1.02,.56-.39,.12-.79,.18-1.2,.18Zm-4.96-9.42v-1.18h6.5v1.18h-6.5Zm13.67,9.42c-1.01,0-1.93-.23-2.74-.68-.8-.47-1.43-1.1-1.9-1.9-.47-.81-.7-1.74-.7-2.78s.23-1.98,.7-2.78c.47-.8,1.1-1.43,1.9-1.88,.8-.45,1.71-.68,2.74-.68s1.96,.23,2.76,.68c.81,.45,1.45,1.08,1.9,1.88,.47,.8,.7,1.73,.7,2.78s-.23,1.97-.7,2.78c-.45,.8-1.09,1.43-1.9,1.9-.81,.45-1.73,.68-2.76,.68Zm0-1.26c.76,0,1.43-.17,2.02-.5,.59-.35,1.05-.83,1.38-1.44,.35-.63,.52-1.35,.52-2.16s-.17-1.55-.52-2.16c-.33-.61-.79-1.09-1.38-1.42-.59-.35-1.25-.52-2-.52s-1.41,.17-2,.52c-.59,.33-1.05,.81-1.4,1.42-.35,.61-.52,1.33-.52,2.16s.17,1.53,.52,2.16c.35,.61,.81,1.09,1.4,1.44,.59,.33,1.25,.5,1.98,.5Zm10.11,1.16l-3.96-10.5h1.36l3.6,9.74h-.62l3.7-9.74h1.22l3.66,9.74h-.62l3.66-9.74h1.3l-3.98,10.5h-1.34l-3.52-9.16h.42l-3.54,9.16h-1.34Zm15.44,0v-10.5h1.42v10.5h-1.42Zm.72-12.82c-.29,0-.54-.1-.74-.3-.2-.2-.3-.44-.3-.72s.1-.51,.3-.7c.2-.2,.45-.3,.74-.3s.54,.09,.74,.28c.2,.19,.3,.42,.3,.7,0,.29-.1,.54-.3,.74-.19,.2-.43,.3-.74,.3Zm9.01,12.92c-1.04,0-1.97-.23-2.8-.68-.81-.47-1.45-1.1-1.92-1.9-.47-.81-.7-1.74-.7-2.78s.23-1.98,.7-2.78,1.11-1.43,1.92-1.88c.83-.45,1.76-.68,2.8-.68,.89,0,1.7,.17,2.42,.52,.72,.35,1.29,.87,1.7,1.56l-1.06,.72c-.36-.53-.81-.93-1.34-1.18-.53-.25-1.11-.38-1.74-.38-.75,0-1.42,.17-2.02,.52-.6,.33-1.07,.81-1.42,1.42-.35,.61-.52,1.33-.52,2.16s.17,1.55,.52,2.16c.35,.61,.82,1.09,1.42,1.44,.6,.33,1.27,.5,2.02,.5,.63,0,1.21-.13,1.74-.38,.53-.25,.98-.64,1.34-1.16l1.06,.72c-.41,.68-.98,1.2-1.7,1.56-.72,.35-1.53,.52-2.42,.52Zm11.19,0c-1.09,0-2.05-.23-2.88-.68-.83-.47-1.47-1.1-1.94-1.9-.47-.81-.7-1.74-.7-2.78s.22-1.96,.66-2.76c.45-.8,1.07-1.43,1.84-1.88,.79-.47,1.67-.7,2.64-.7s1.86,.23,2.62,.68c.77,.44,1.38,1.07,1.82,1.88,.44,.8,.66,1.73,.66,2.78,0,.07,0,.14-.02,.22v.22h-9.14v-1.06h8.38l-.56,.42c0-.76-.17-1.43-.5-2.02-.32-.6-.76-1.07-1.32-1.4-.56-.33-1.21-.5-1.94-.5s-1.37,.17-1.94,.5c-.57,.33-1.02,.8-1.34,1.4-.32,.6-.48,1.29-.48,2.06v.22c0,.8,.17,1.51,.52,2.12,.36,.6,.85,1.07,1.48,1.42,.64,.33,1.37,.5,2.18,.5,.64,0,1.23-.11,1.78-.34,.56-.23,1.04-.57,1.44-1.04l.8,.92c-.47,.56-1.05,.99-1.76,1.28-.69,.29-1.46,.44-2.3,.44Z" style="fill:#0e1e2e;"/><path d="M484.76,794.74c0,4.03-3.27,7.29-7.29,7.29s-7.29-3.27-7.29-7.29,3.27-7.3,7.29-7.3,7.29,3.27,7.29,7.3Zm-7.29,8.86c4.89,0,8.86-3.97,8.86-8.86s-3.97-8.86-8.86-8.86-8.86,3.97-8.86,8.86,3.97,8.86,8.86,8.86Z" style="fill:#0e1e2e; stroke:#0e1e2e;"/><circle cx="477.47" cy="794.74" r="4.71" style="fill:#0e1e2e;"/><path d="M415.13,822.1v-14h6.04c1.56,0,2.77,.31,3.62,.94,.87,.63,1.3,1.51,1.3,2.66,0,.76-.18,1.4-.54,1.92-.35,.52-.83,.91-1.44,1.18-.6,.27-1.26,.4-1.98,.4l.34-.48c.89,0,1.66,.14,2.3,.42,.65,.27,1.16,.67,1.52,1.22,.36,.53,.54,1.2,.54,2,0,1.19-.44,2.11-1.32,2.76-.87,.65-2.18,.98-3.94,.98h-6.44Zm1.48-1.22h4.94c1.23,0,2.17-.21,2.82-.62,.65-.43,.98-1.1,.98-2.02s-.33-1.57-.98-1.98c-.65-.43-1.59-.64-2.82-.64h-5.1v-1.22h4.62c1.12,0,1.99-.21,2.6-.64,.63-.43,.94-1.06,.94-1.9s-.31-1.49-.94-1.9c-.61-.43-1.48-.64-2.6-.64h-4.46v11.56Zm13.3,1.22v-10.5h1.42v10.5h-1.42Zm.72-12.82c-.29,0-.54-.1-.74-.3-.2-.2-.3-.44-.3-.72s.1-.51,.3-.7c.2-.2,.45-.3,.74-.3s.54,.09,.74,.28c.2,.19,.3,.42,.3,.7,0,.29-.1,.54-.3,.74-.19,.2-.43,.3-.74,.3Zm9.11,12.92c-1.09,0-2.05-.23-2.88-.68-.83-.47-1.47-1.1-1.94-1.9-.47-.81-.7-1.74-.7-2.78s.22-1.96,.66-2.76c.45-.8,1.07-1.43,1.84-1.88,.79-.47,1.67-.7,2.64-.7s1.86,.23,2.62,.68c.77,.44,1.38,1.07,1.82,1.88,.44,.8,.66,1.73,.66,2.78,0,.07,0,.14-.02,.22v.22h-9.14v-1.06h8.38l-.56,.42c0-.76-.17-1.43-.5-2.02-.32-.6-.76-1.07-1.32-1.4-.56-.33-1.21-.5-1.94-.5s-1.37,.17-1.94,.5c-.57,.33-1.02,.8-1.34,1.4s-.48,1.29-.48,2.06v.22c0,.8,.17,1.51,.52,2.12,.36,.6,.85,1.07,1.48,1.42,.64,.33,1.37,.5,2.18,.5,.64,0,1.23-.11,1.78-.34,.56-.23,1.04-.57,1.44-1.04l.8,.92c-.47,.56-1.05,.99-1.76,1.28-.69,.29-1.46,.44-2.3,.44Zm7.61-.1v-14.84h1.42v14.84h-1.42Zm8.19,.1c-.87,0-1.69-.12-2.46-.36-.77-.25-1.38-.57-1.82-.94l.64-1.12c.43,.32,.97,.6,1.64,.84,.67,.23,1.37,.34,2.1,.34,1,0,1.72-.15,2.16-.46,.44-.32,.66-.74,.66-1.26,0-.39-.13-.69-.38-.9-.24-.23-.56-.39-.96-.5-.4-.12-.85-.22-1.34-.3-.49-.08-.99-.17-1.48-.28-.48-.11-.92-.26-1.32-.46-.4-.21-.73-.5-.98-.86-.24-.36-.36-.84-.36-1.44s.16-1.09,.48-1.54c.32-.45,.79-.81,1.4-1.06,.63-.27,1.39-.4,2.28-.4,.68,0,1.36,.09,2.04,.28,.68,.17,1.24,.41,1.68,.7l-.62,1.14c-.47-.32-.97-.55-1.5-.68-.53-.15-1.07-.22-1.6-.22-.95,0-1.65,.17-2.1,.5-.44,.32-.66,.73-.66,1.24,0,.4,.12,.71,.36,.94,.25,.23,.58,.41,.98,.54,.41,.12,.86,.22,1.34,.3,.49,.08,.98,.18,1.46,.3,.49,.11,.94,.26,1.34,.46,.41,.19,.74,.46,.98,.82,.25,.35,.38,.81,.38,1.38,0,.61-.17,1.15-.52,1.6-.33,.44-.83,.79-1.48,1.04-.64,.24-1.42,.36-2.34,.36Zm8.07-2.82l.04-1.82,6.54-5.96h1.74l-4.62,4.42-.8,.68-2.9,2.68Zm-1.12,2.72v-14.84h1.42v14.84h-1.42Zm8.14,0l-4.38-5.46,.92-1.1,5.2,6.56h-1.74Zm7.72,.1c-1.01,0-1.93-.23-2.74-.68-.8-.47-1.43-1.1-1.9-1.9-.47-.81-.7-1.74-.7-2.78s.23-1.98,.7-2.78c.47-.8,1.1-1.43,1.9-1.88,.8-.45,1.71-.68,2.74-.68s1.96,.23,2.76,.68c.81,.45,1.45,1.08,1.9,1.88,.47,.8,.7,1.73,.7,2.78s-.23,1.97-.7,2.78c-.45,.8-1.09,1.43-1.9,1.9-.81,.45-1.73,.68-2.76,.68Zm0-1.26c.76,0,1.43-.17,2.02-.5,.59-.35,1.05-.83,1.38-1.44,.35-.63,.52-1.35,.52-2.16s-.17-1.55-.52-2.16c-.33-.61-.79-1.09-1.38-1.42-.59-.35-1.25-.52-2-.52s-1.41,.17-2,.52c-.59,.33-1.05,.81-1.4,1.42-.35,.61-.52,1.33-.52,2.16s.17,1.53,.52,2.16c.35,.61,.81,1.09,1.4,1.44,.59,.33,1.25,.5,1.98,.5Zm7.67-3.64v-1.24h5.24v1.24h-5.24Zm8.72,4.8v-14h6.04c1.56,0,2.77,.31,3.62,.94,.87,.63,1.3,1.51,1.3,2.66,0,.76-.18,1.4-.54,1.92-.35,.52-.83,.91-1.44,1.18-.6,.27-1.26,.4-1.98,.4l.34-.48c.89,0,1.66,.14,2.3,.42,.65,.27,1.16,.67,1.52,1.22,.36,.53,.54,1.2,.54,2,0,1.19-.44,2.11-1.32,2.76-.87,.65-2.18,.98-3.94,.98h-6.44Zm1.48-1.22h4.94c1.23,0,2.17-.21,2.82-.62,.65-.43,.98-1.1,.98-2.02s-.33-1.57-.98-1.98c-.65-.43-1.59-.64-2.82-.64h-5.1v-1.22h4.62c1.12,0,1.99-.21,2.6-.64,.63-.43,.94-1.06,.94-1.9s-.31-1.49-.94-1.9c-.61-.43-1.48-.64-2.6-.64h-4.46v11.56Zm13.3,1.22v-10.5h1.42v10.5h-1.42Zm.72-12.82c-.29,0-.54-.1-.74-.3-.2-.2-.3-.44-.3-.72s.1-.51,.3-.7c.2-.2,.45-.3,.74-.3s.54,.09,.74,.28c.2,.19,.3,.42,.3,.7,0,.29-.1,.54-.3,.74-.19,.2-.43,.3-.74,.3Zm11.23,12.82v-2.32l-.06-.38v-3.88c0-.89-.25-1.58-.76-2.06-.49-.48-1.23-.72-2.22-.72-.68,0-1.33,.11-1.94,.34-.61,.23-1.13,.53-1.56,.9l-.64-1.06c.53-.45,1.17-.8,1.92-1.04,.75-.25,1.53-.38,2.36-.38,1.36,0,2.41,.34,3.14,1.02,.75,.67,1.12,1.69,1.12,3.06v6.52h-1.36Zm-3.62,.1c-.79,0-1.47-.13-2.06-.38-.57-.27-1.01-.63-1.32-1.08-.31-.47-.46-1-.46-1.6,0-.55,.13-1.04,.38-1.48,.27-.45,.69-.81,1.28-1.08,.6-.28,1.4-.42,2.4-.42h3.62v1.06h-3.58c-1.01,0-1.72,.18-2.12,.54-.39,.36-.58,.81-.58,1.34,0,.6,.23,1.08,.7,1.44,.47,.36,1.12,.54,1.96,.54s1.49-.18,2.06-.54c.59-.37,1.01-.91,1.28-1.6l.32,.98c-.27,.69-.73,1.25-1.4,1.66-.65,.41-1.48,.62-2.48,.62Zm8.94-.1v-14.84h1.42v14.84h-1.42Zm-1.38-4.86l-.66-.86,4.84-3.64,.64,.88-4.82,3.62Zm13.45,4.86v-2.32l-.06-.38v-3.88c0-.89-.25-1.58-.76-2.06-.49-.48-1.23-.72-2.22-.72-.68,0-1.33,.11-1.94,.34-.61,.23-1.13,.53-1.56,.9l-.64-1.06c.53-.45,1.17-.8,1.92-1.04,.75-.25,1.53-.38,2.36-.38,1.36,0,2.41,.34,3.14,1.02,.75,.67,1.12,1.69,1.12,3.06v6.52h-1.36Zm-3.62,.1c-.79,0-1.47-.13-2.06-.38-.57-.27-1.01-.63-1.32-1.08-.31-.47-.46-1-.46-1.6,0-.55,.13-1.04,.38-1.48,.27-.45,.69-.81,1.28-1.08,.6-.28,1.4-.42,2.4-.42h3.62v1.06h-3.58c-1.01,0-1.72,.18-2.12,.54-.39,.36-.58,.81-.58,1.34,0,.6,.23,1.08,.7,1.44,.47,.36,1.12,.54,1.96,.54s1.49-.18,2.06-.54c.59-.37,1.01-.91,1.28-1.6l.32,.98c-.27,.69-.73,1.25-1.4,1.66-.65,.41-1.48,.62-2.48,.62Z" style="fill:#0e1e2e;"/></svg>