<svg xmlns="http://www.w3.org/2000/svg" xmlns:xlink="http://www.w3.org/1999/xlink" viewBox="0 0 1558.51 1724.61"><defs><linearGradient id="d" x1="172.62" y1="722.12" x2="666.04" y2="323.32" gradientTransform="translate(0 1291.76) scale(1 -1)" gradientUnits="userSpaceOnUse"><stop offset=".31" stop-color="#a2578f"/><stop offset="1" stop-color="#fff" stop-opacity="0"/></linearGradient></defs><g style="opacity:.2;"><path d="M163.61,1590.08c-117.6-414.09-42.33-889.12,229.69-1225.67C564.8,152.22,785.93,30.44,1014.57,0,755.38,26.77,503.11,160.73,309.1,400.77,15.25,764.34-68.13,1276.04,54.88,1724.61l108.73-134.53Z" style="fill:url(#d);"/><path d="M1449.78,185.99c-353.61-122.09-750.45-12.98-1022.47,323.57-171.5,212.19-264.79,479.43-280.86,751.76,11.7-308.39,113.95-613.06,307.95-853.1C748.24,44.69,1175.65-75.6,1558.51,51.46l-108.73,134.53Z" style="fill:#695467;"/></g></svg>