<svg width="1421" height="2278" viewBox="0 0 1421 2278" fill="none" xmlns="http://www.w3.org/2000/svg">
<g opacity="0.2">
<path d="M686.884 2083.2C569.288 1669.11 644.557 1194.08 916.572 857.53C1088.07 645.34 1309.2 523.563 1537.84 493.122C1278.65 519.895 1026.38 653.854 832.375 893.89C538.523 1257.46 455.141 1769.16 578.15 2217.73L686.884 2083.2Z" fill="url(#paint0_linear_253_2001)"/>
<path d="M1973.05 679.117C1619.44 557.032 1222.6 666.136 950.583 1002.69C779.084 1214.88 685.792 1482.12 669.724 1754.45C681.425 1446.06 783.671 1141.39 977.678 901.353C1271.51 537.811 1698.92 417.525 2081.78 544.585L1973.05 679.117Z" fill="#695467"/>
</g>
<defs>
<linearGradient id="paint0_linear_253_2001" x1="746.148" y1="1000.58" x2="1239.57" y2="1399.38" gradientUnits="userSpaceOnUse">
<stop offset="0.30991" stop-color="#A2578F"/>
<stop offset="1" stop-color="white" stop-opacity="0"/>
</linearGradient>
</defs>
</svg>
