<svg xmlns="http://www.w3.org/2000/svg" xmlns:xlink="http://www.w3.org/1999/xlink" viewBox="0 0 684.17 619.9"><defs><linearGradient id="d" x1="575.5" y1="332.5" x2="398.37" y2="523.79" gradientTransform="translate(0 782.4) scale(1 -1)" gradientUnits="userSpaceOnUse"><stop offset=".31" stop-color="#a2578f"/><stop offset="1" stop-color="#fff" stop-opacity="0"/></linearGradient></defs><g style="opacity:.2;"><path d="M627.99,45.98c26.64,172.34-26.21,355.72-150.44,470.76-78.32,72.53-171.97,105.79-264.18,102.3,104.15,7.03,210.75-28.95,299.35-111C646.92,383.78,704.76,186.39,677.65,0l-49.66,45.98Z" style="fill:url(#d);"/><path d="M49.66,515.59c134.42,72.53,297.19,56.26,421.41-58.77,78.32-72.53,128.27-172.23,147.82-279.21-19.56,121.59-74.88,235.53-163.48,317.57C321.23,619.45,145.79,638.07,0,561.58l49.66-45.98Z" style="fill:#695467;"/></g></svg>