<svg width="599" height="840" viewBox="0 0 599 840" fill="none" xmlns="http://www.w3.org/2000/svg">
<g opacity="0.2">
<path d="M348.151 74.7811C374.787 247.12 321.938 430.505 197.71 545.539C119.386 618.065 25.7395 651.332 -66.4672 647.841C37.6869 654.869 144.279 618.888 232.881 536.844C367.083 412.575 424.926 215.187 397.81 28.7978L348.151 74.7811Z" fill="url(#paint0_linear_253_2004)"/>
<path d="M-230.18 544.389C-95.7588 616.921 67.0056 600.651 191.234 485.617C269.558 413.09 319.508 313.388 339.058 206.412C319.496 327.998 264.182 441.941 175.58 523.986C41.3889 648.245 -134.047 666.871 -279.838 590.373L-230.18 544.389Z" fill="#695467"/>
</g>
<defs>
<linearGradient id="paint0_linear_253_2004" x1="272.261" y1="500.378" x2="95.1233" y2="309.082" gradientUnits="userSpaceOnUse">
<stop offset="0.30991" stop-color="#A2578F"/>
<stop offset="1" stop-color="white" stop-opacity="0"/>
</linearGradient>
</defs>
</svg>
