<svg width="503" height="250" viewBox="0 0 503 250" fill="none" xmlns="http://www.w3.org/2000/svg">
<g opacity="0.2">
<path d="M-68.5284 39.5247C-17.2825 155.947 85.2301 235.401 203.358 235.401C277.836 235.401 346.108 203.815 399.242 151.294C340.422 212.443 263.444 249.51 179.193 249.51C51.5815 249.51 -59.3251 164.514 -115.749 39.5247H-68.5284Z" fill="#A2578F"/>
<path d="M455.78 0.569489C404.534 116.992 302.021 196.446 183.893 196.446C109.416 196.446 41.1432 164.86 -11.9911 112.339C46.8291 173.488 123.807 210.555 208.058 210.555C335.659 210.555 446.576 125.558 503 0.569489H455.78Z" fill="url(#paint0_linear_253_1997)"/>
</g>
<defs>
<linearGradient id="paint0_linear_253_1997" x1="245.504" y1="210.555" x2="245.504" y2="0.569489" gradientUnits="userSpaceOnUse">
<stop offset="0.30991" stop-color="#695467"/>
<stop offset="1" stop-color="white" stop-opacity="0"/>
</linearGradient>
</defs>
</svg>
