<svg width="816" height="389" viewBox="0 0 816 389" fill="none" xmlns="http://www.w3.org/2000/svg">
<g opacity="0.2">
<path d="M74.0113 327.689C153.883 146.235 313.658 22.3982 497.771 22.3982C613.85 22.3982 720.259 71.6288 803.074 153.487C711.397 58.1813 591.42 0.408936 460.107 0.408936C261.213 0.408936 88.3555 132.883 0.414551 327.689H74.0113Z" fill="url(#paint0_linear_253_1793)"/>
<path d="M891.193 388.405C811.322 206.95 651.547 83.1138 467.433 83.1138C351.354 83.1138 244.945 132.344 162.131 214.203C253.807 118.897 373.784 61.1245 505.097 61.1245C703.975 61.1245 876.849 193.599 964.79 388.405H891.193Z" fill="#695467"/>
</g>
<defs>
<linearGradient id="paint0_linear_253_1793" x1="401.744" y1="0.408936" x2="401.744" y2="327.689" gradientUnits="userSpaceOnUse">
<stop offset="0.30991" stop-color="#A2578F"/>
<stop offset="1" stop-color="white" stop-opacity="0"/>
</linearGradient>
</defs>
</svg>
