<svg xmlns="http://www.w3.org/2000/svg" viewBox="0 0 22.83 25.5"><path d="M16.75,25.5H6.08c-3.35,0-6.08-2.73-6.08-6.08V9.68C0,6.33,2.73,3.6,6.08,3.6h10.67c3.35,0,6.08,2.73,6.08,6.08v9.73c0,3.35-2.73,6.08-6.08,6.08ZM6.08,5.1c-2.53,0-4.58,2.06-4.58,4.58v9.73c0,2.53,2.06,4.58,4.58,4.58h10.67c2.53,0,4.58-2.06,4.58-4.58V9.68c0-2.53-2.06-4.58-4.58-4.58H6.08Z" /><path d="M6.62,5.1c-.41,0-.75-.34-.75-.75V.75c0-.41,.34-.75,.75-.75s.75,.34,.75,.75v3.6c0,.41-.34,.75-.75,.75Z" /><path d="M16.22,5.1c-.41,0-.75-.34-.75-.75V.75c0-.41,.34-.75,.75-.75s.75,.34,.75,.75v3.6c0,.41-.34,.75-.75,.75Z" /><rect x=".62" y="9.6" width="21.6" height="1.5" /><path d="M6.76,15.9h-.29c-.41,0-.75-.34-.75-.75s.34-.75,.75-.75h.29c.41,0,.75,.34,.75,.75s-.34,.75-.75,.75Z" /><path d="M12.32,15.9h-1.81c-.41,0-.75-.34-.75-.75s.34-.75,.75-.75h1.81c.41,0,.75,.34,.75,.75s-.34,.75-.75,.75Z" /><path d="M16.36,15.9h-.29c-.41,0-.75-.34-.75-.75s.34-.75,.75-.75h.29c.41,0,.75,.34,.75,.75s-.34,.75-.75,.75Z" /><path d="M8.63,20.7h-2.16c-.41,0-.75-.34-.75-.75s.34-.75,.75-.75h2.16c.41,0,.75,.34,.75,.75s-.34,.75-.75,.75Z" /><path d="M12.62,20.7h-.29c-.41,0-.75-.34-.75-.75s.34-.75,.75-.75h.29c.41,0,.75,.34,.75,.75s-.34,.75-.75,.75Z" /><path d="M16.36,20.7h-.29c-.41,0-.75-.34-.75-.75s.34-.75,.75-.75h.29c.41,0,.75,.34,.75,.75s-.34,.75-.75,.75Z" /></svg>