<svg width="32" height="33" viewBox="0 0 32 33" fill="none" xmlns="http://www.w3.org/2000/svg">
<g clip-path="url(#clip0_253_1966)">
<path d="M21.3333 8.48633H10.6666C7.72113 8.48633 5.33331 10.8741 5.33331 13.8197V23.553C5.33331 26.4985 7.72113 28.8863 10.6666 28.8863H21.3333C24.2788 28.8863 26.6666 26.4985 26.6666 23.553V13.8197C26.6666 10.8741 24.2788 8.48633 21.3333 8.48633Z" stroke="white" stroke-width="1.5" stroke-linejoin="round"/>
<path d="M11.2 4.88672V8.48672" stroke="white" stroke-width="1.5" stroke-linecap="round" stroke-linejoin="round"/>
<path d="M20.8 4.88672V8.48672" stroke="white" stroke-width="1.5" stroke-linecap="round" stroke-linejoin="round"/>
<path d="M26.7999 14.4863H5.20001" stroke="white" stroke-width="1.5" stroke-linejoin="round"/>
<path d="M11.0533 19.2871H11.3467" stroke="white" stroke-width="1.5" stroke-linecap="round" stroke-linejoin="round"/>
<path d="M15.0933 19.2871H16.9066" stroke="white" stroke-width="1.5" stroke-linecap="round" stroke-linejoin="round"/>
<path d="M20.6533 19.2871H20.9467" stroke="white" stroke-width="1.5" stroke-linecap="round" stroke-linejoin="round"/>
<path d="M11.0533 24.0869H13.2133" stroke="white" stroke-width="1.5" stroke-linecap="round" stroke-linejoin="round"/>
<path d="M17.2001 24.0869H16.9067" stroke="white" stroke-width="1.5" stroke-linecap="round" stroke-linejoin="round"/>
<path d="M20.6533 24.0869H20.9467" stroke="white" stroke-width="1.5" stroke-linecap="round" stroke-linejoin="round"/>
</g>
<defs>
<clipPath id="clip0_253_1966">
<rect width="32" height="32" fill="white" transform="translate(0 0.886719)"/>
</clipPath>
</defs>
</svg>
