<svg xmlns="http://www.w3.org/2000/svg" viewBox="0 0 25.5 24.17"><path d="M19.4,24.17H6.08c-3.35,0-6.08-2.73-6.08-6.08V6.08C0,2.73,2.73,0,6.08,0h13.32c3.35,0,6.08,2.73,6.08,6.08v12c0,3.35-2.73,6.08-6.08,6.08ZM6.08,1.5C3.56,1.5,1.5,3.56,1.5,6.08v12c0,2.53,2.06,4.58,4.58,4.58h13.32c2.53,0,4.58-2.06,4.58-4.58V6.08c0-2.53-2.06-4.58-4.58-4.58H6.08Z" /><path d="M12.75,18.72c-.78,0-1.56-.2-2.24-.61L1.53,12.75c-.94-.56-1.53-1.59-1.53-2.68,0-.41,.34-.75,.75-.75s.75,.34,.75,.75c0,.57,.3,1.1,.79,1.4l8.99,5.36c.89,.54,2.05,.54,2.94,0l8.99-5.36c.49-.29,.79-.83,.79-1.4,0-.41,.34-.75,.75-.75s.75,.34,.75,.75c0,1.1-.58,2.13-1.53,2.69l-8.99,5.36c-.68,.41-1.46,.61-2.24,.61Z" /></svg>