<svg width="32" height="33" viewBox="0 0 32 33" fill="none" xmlns="http://www.w3.org/2000/svg">
<g clip-path="url(#clip0_253_1955)">
<path d="M22.6533 5.55371H9.33333C6.38781 5.55371 4 7.94153 4 10.887V22.887C4 25.8326 6.38781 28.2204 9.33333 28.2204H22.6533C25.5988 28.2204 27.9867 25.8326 27.9867 22.887V10.887C27.9867 7.94153 25.5988 5.55371 22.6533 5.55371Z" stroke="white" stroke-width="1.5" stroke-linecap="round" stroke-linejoin="round"/>
<path d="M4 14.873C4 15.713 4.43999 16.4864 5.15999 16.913L14.1466 22.273C15.28 22.953 16.72 22.953 17.8534 22.273L26.84 16.913C27.56 16.4864 28 15.713 28 14.873" stroke="white" stroke-width="1.5" stroke-linecap="round" stroke-linejoin="round"/>
</g>
<defs>
<clipPath id="clip0_253_1955">
<rect width="32" height="32" fill="white" transform="translate(0 0.886719)"/>
</clipPath>
</defs>
</svg>
