<svg width="60" height="61" viewBox="0 0 60 61" fill="none" xmlns="http://www.w3.org/2000/svg"><g clip-path="url(#clip0_253_2053)"><path d="M42.3 36.6993C41.075 37.7993 39.025 37.8244 36.6 36.8994C33.4 35.7494 29.575 32.9743 26.125 29.1243C22.7 25.2743 20.3749 21.1494 19.5749 17.8244C18.9499 15.3244 19.2249 13.2994 20.4499 12.1994C23.3499 9.62436 30.5749 12.9993 36.6249 19.7493C42.6749 26.4993 45.2 34.0994 42.3 36.6744V36.6993Z" stroke="#A2578F" stroke-width="1.5" stroke-miterlimit="10" stroke-linecap="round"/><path d="M19.6499 13.3994L7.92499 39.6744C6.27499 43.3494 9.77499 47.2494 13.625 46.0494L41.0749 37.3744" stroke="#A2578F" stroke-width="1.5" stroke-miterlimit="10" stroke-linecap="round"/><path d="M16.6 45.3743L17.925 49.5993C18.65 51.8993 21.15 53.1993 23.45 52.4743L27.675 51.1494C29.975 50.4244 31.275 47.9243 30.55 45.6243L29.225 41.3993" stroke="#A2578F" stroke-width="1.5" stroke-miterlimit="10" stroke-linecap="round"/><path d="M50.35 9.99927L48.15 12.2243" stroke="#A2578F" stroke-width="1.5" stroke-miterlimit="10" stroke-linecap="round"/><path d="M39 7.67432L37.975 9.9243" stroke="#A2578F" stroke-width="1.5" stroke-miterlimit="10" stroke-linecap="round"/><path d="M52.5 21.1743L50.4 22.2993" stroke="#A2578F" stroke-width="1.5" stroke-miterlimit="10" stroke-linecap="round"/></g><defs><clipPath id="clip0_253_2053"><rect width="60" height="60" fill="white" transform="translate(0 0.174316)"/></clipPath></defs></svg>