<svg xmlns="http://www.w3.org/2000/svg" viewBox="0 0 46.49 46.5"><path d="M32.98,31.38c-1.02,0-2.16-.24-3.4-.71-3.39-1.22-7.32-4.13-10.77-7.98-3.42-3.84-5.87-8.08-6.72-11.63-.71-2.82-.31-5.08,1.1-6.36,3.25-2.89,10.82,.45,17.23,7.61,4.51,5.03,7.28,10.77,7.06,14.64-.07,1.3-.47,2.34-1.19,3.11v.02l-.25,.25c-.78,.7-1.82,1.05-3.07,1.05ZM16.28,5.17c-.88,0-1.59,.22-2.09,.67-.98,.88-1.21,2.62-.65,4.88,.8,3.32,3.12,7.32,6.38,10.98,3.29,3.67,6.99,6.43,10.17,7.57,2.05,.78,3.7,.82,4.71,.13l.24-.21c.56-.5,.88-1.28,.94-2.32,.2-3.43-2.49-8.88-6.68-13.55-4.86-5.42-9.94-8.16-13.02-8.16Zm19.26,24.61h0Z" style="fill:#a2578f;"/><path d="M5.44,40.1c-1.53,0-3-.65-4.06-1.85-1.43-1.62-1.78-3.84-.89-5.8L12.21,6.17c.17-.38,.61-.55,.99-.38,.38,.17,.55,.61,.38,.99L1.85,33.06c-.64,1.42-.39,3.03,.65,4.19,1.05,1.18,2.64,1.63,4.14,1.16l27.45-8.67c.4-.13,.82,.09,.94,.49,.12,.39-.09,.82-.49,.94L7.09,39.84c-.55,.17-1.11,.25-1.65,.25Z" style="fill:#a2578f;"/><path d="M15.37,46.5c-2.19,0-4.23-1.41-4.92-3.6l-1.33-4.23c-.12-.4,.1-.82,.49-.94,.39-.13,.82,.1,.94,.49l1.32,4.23c.59,1.89,2.69,2.98,4.58,2.38l4.23-1.33c.92-.29,1.68-.93,2.13-1.8,.45-.87,.54-1.86,.25-2.78l-1.33-4.23c-.12-.4,.1-.82,.49-.94,.4-.13,.82,.1,.94,.49l1.32,4.22c.41,1.3,.29,2.7-.35,3.92-.64,1.23-1.71,2.13-3.01,2.54l-4.23,1.33c-.51,.16-1.03,.24-1.55,.24Z" style="fill:#a2578f;"/><path d="M41.39,6.05c-.19,0-.38-.07-.53-.22-.29-.29-.3-.77,0-1.06l2.2-2.22c.29-.29,.77-.3,1.06,0s.3,.77,0,1.06l-2.2,2.22c-.15,.15-.34,.22-.53,.22Z" style="fill:#a2578f;"/><path d="M31.22,3.75c-.1,0-.21-.02-.31-.07-.38-.17-.54-.62-.37-.99l1.03-2.25c.17-.38,.62-.54,.99-.37,.38,.17,.54,.62,.37,.99l-1.03,2.25c-.13,.28-.4,.44-.68,.44Z" style="fill:#a2578f;"/><path d="M43.64,16.13c-.27,0-.53-.14-.66-.4-.2-.36-.06-.82,.31-1.02l2.1-1.12c.37-.2,.82-.06,1.02,.31s.06,.82-.31,1.02l-2.1,1.12c-.11,.06-.23,.09-.35,.09Z" style="fill:#a2578f;"/></svg>