<svg xmlns="http://www.w3.org/2000/svg" viewBox="0 0 44.97 46.5"><path d="M15.63,28.5c-7.98,0-14.48-6.39-14.48-14.25S7.65,0,15.63,0c4.72,0,9.12,2.26,11.79,6.04,.12,.17,.27,.37,.4,.64,1.48,2.23,2.26,4.84,2.27,7.56h0v.03h0c0,2.75-.8,5.38-2.3,7.62-.08,.16-.22,.37-.38,.58-2.69,3.77-7.09,6.03-11.78,6.03ZM15.63,1.5C8.47,1.5,2.65,7.22,2.65,14.25s5.82,12.75,12.98,12.75c4.2,0,8.15-2.02,10.56-5.41,.11-.15,.22-.29,.3-.45,1.38-2.07,2.09-4.42,2.09-6.87,0-2.45-.71-4.8-2.05-6.8-.02-.03-.04-.07-.06-.11-.07-.15-.17-.29-.28-.44-2.39-3.4-6.34-5.42-10.57-5.42Z" style="fill:#a2578f;"/><path d="M34.12,24.95c-2.78,0-5.43-1.04-7.44-2.93-.27-.25-.31-.66-.11-.96,1.34-2,2.05-4.35,2.05-6.81s-.71-4.81-2.05-6.81c-.2-.31-.16-.71,.11-.96,2.02-1.89,4.66-2.93,7.44-2.93,5.98,0,10.85,4.8,10.85,10.7s-4.87,10.7-10.85,10.7Zm-5.95-3.61c1.67,1.37,3.76,2.11,5.95,2.11,5.16,0,9.35-4.13,9.35-9.2s-4.19-9.2-9.35-9.2c-2.19,0-4.28,.75-5.95,2.11,1.28,2.12,1.95,4.56,1.95,7.08s-.67,4.96-1.95,7.08Z" style="fill:#a2578f;"/><path d="M.75,46.5c-.13,0-.27-.04-.39-.11-.35-.21-.47-.67-.25-1.03,3.27-5.41,9.04-8.66,15.44-8.68,.03,0,.05,0,.08,0,6.37,0,12.13,3.19,15.43,8.55l.08,.12c.22,.35,.11,.81-.25,1.03-.35,.22-.81,.11-1.03-.25l-.08-.12c-3.02-4.91-8.31-7.84-14.15-7.84-.02,0-.05,0-.07,0-5.87,.02-11.16,3-14.16,7.96-.14,.23-.39,.36-.64,.36Z" style="fill:#a2578f;"/><path d="M40.79,44.25c-.32,0-.62-.21-.72-.54-1-3.39-3.39-6.09-6.4-7.24-.24-.09-.42-.3-.47-.55-.05-.25,.03-.51,.21-.69l3.04-2.97c.29-.29,.77-.28,1.06,.01,.29,.3,.28,.77-.01,1.06l-2.25,2.2c2.95,1.49,5.25,4.32,6.26,7.75,.12,.4-.11,.81-.51,.93-.07,.02-.14,.03-.21,.03Z" style="fill:#a2578f;"/></svg>