<svg width="62" height="61" viewBox="0 0 62 61" fill="none" xmlns="http://www.w3.org/2000/svg"><path d="M37.8523 21.1743C37.8523 23.8243 37.0852 26.2993 35.6789 28.3993C35.5767 28.5993 35.4489 28.7743 35.321 28.9493C32.8665 32.3993 28.75 34.6743 24.1477 34.6743C16.5796 34.6743 10.4176 28.6243 10.4176 21.1743C10.4176 13.7243 16.5796 7.67432 24.1477 7.67432C28.7756 7.67432 32.8921 9.94932 35.321 13.3993C35.4489 13.5743 35.5767 13.7493 35.6789 13.9743C37.0852 16.0743 37.8523 18.5493 37.8523 21.1993V21.1743Z" stroke="#A2578F" stroke-width="1.5" stroke-linecap="round" stroke-linejoin="round"/><path d="M52.7329 21.1744C52.7329 26.6744 48.2073 31.1244 42.6335 31.1244C39.9488 31.1244 37.5199 30.0994 35.7045 28.3994C37.1108 26.2994 37.8778 23.8244 37.8778 21.1744C37.8778 18.5244 37.1108 16.0494 35.7045 13.9494C37.5199 12.2494 39.9488 11.2244 42.6335 11.2244C48.2073 11.2244 52.7329 15.6744 52.7329 21.1744Z" stroke="#A2578F" stroke-width="1.5" stroke-linecap="round" stroke-linejoin="round"/><path d="M9.26704 52.6743C15.9403 41.6243 32.1762 41.5743 38.9262 52.5493L39.0029 52.6743" stroke="#A2578F" stroke-width="1.5" stroke-linecap="round" stroke-linejoin="round"/><path d="M49.3068 50.4244C48.233 46.7744 45.6762 43.9244 42.4546 42.6994L45.4972 39.7244" stroke="#A2578F" stroke-width="1.5" stroke-linecap="round" stroke-linejoin="round"/></svg>