<svg width="32" height="33" viewBox="0 0 32 33" fill="none" xmlns="http://www.w3.org/2000/svg">
<g clip-path="url(#clip0_253_1952)">
<path d="M25.1733 28.1404C24.6667 28.607 24 28.8604 23.32 28.887C21.4667 28.887 17.56 27.7537 11.3333 21.5804C5.12 15.4071 4.04 11.4604 4 9.67373C4 8.99373 4.27998 8.34039 4.73332 7.83373L6.93335 5.64704C7.18668 5.38038 7.49334 5.18036 7.84001 5.04703C8.20001 4.91369 8.56002 4.87371 8.93335 4.90038C9.29335 4.92705 9.64 5.04705 9.96 5.23371C10.28 5.42038 10.5467 5.67371 10.7467 5.98038L12.5333 8.51366C12.7067 8.80699 12.8267 9.14037 12.8534 9.4737C12.8534 9.82037 12.8 10.1537 12.6667 10.4737L11.4 12.767C11.32 12.9403 11.28 13.1404 11.28 13.3404C11.28 13.5404 11.32 13.7271 11.4 13.9137C12.2 15.5271 13.2933 16.9803 14.64 18.1803C15.8533 19.527 17.2933 20.6204 18.92 21.4071C19.0933 21.4871 19.3067 21.527 19.5067 21.527C19.6933 21.527 19.9067 21.4871 20.08 21.4071L22.3867 20.2204C22.6933 20.0737 23.04 20.007 23.3733 20.0337C23.72 20.047 24.0533 20.1537 24.3333 20.3404L26.88 22.1404C27.1867 22.3404 27.4533 22.6071 27.64 22.9271C27.8133 23.2471 27.9467 23.5937 27.9733 23.9537C28.0133 24.3137 27.9733 24.687 27.8267 25.0337C27.68 25.3803 27.48 25.687 27.2133 25.9403L25.1733 28.1404Z" stroke="white" stroke-width="1.5" stroke-miterlimit="10"/>
</g>
<defs>
<clipPath id="clip0_253_1952">
<rect width="32" height="32" fill="white" transform="translate(0 0.886719)"/>
</clipPath>
</defs>
</svg>
