<svg xmlns="http://www.w3.org/2000/svg" viewBox="0 0 25.49 25.49"><path d="M20.1,25.49c-1.87,0-5.94-.98-12.54-7.52C1.08,11.54,.04,7.43,0,5.55c0-.86,.33-1.69,.92-2.36L3.15,.97c.31-.33,.71-.59,1.17-.77C4.77,.04,5.24-.03,5.74,0c.46,.03,.92,.18,1.35,.43,.42,.25,.77,.58,1.04,.98l1.77,2.51c.27,.46,.42,.9,.46,1.33,0,.53-.08,.95-.24,1.35l-1.3,2.37s-.03,.11-.03,.21,.02,.18,.06,.28c.75,1.52,1.79,2.88,3.05,4,1.22,1.34,2.58,2.37,4.11,3.11,.11,.05,.38,.06,.52,0l2.28-1.17c.45-.22,.92-.3,1.39-.27,.45,.02,.92,.17,1.32,.43l2.56,1.81c.39,.25,.74,.61,.97,1.02,.26,.48,.4,.92,.43,1.35,.05,.48-.02,.98-.2,1.43-.2,.46-.46,.85-.79,1.16l-2.05,2.21c-.62,.58-1.45,.91-2.33,.94h0ZM5.47,1.5c-.22,0-.42,.03-.62,.11-.24,.09-.45,.23-.62,.41l-2.22,2.2c-.32,.36-.51,.83-.51,1.31,.03,1.31,.78,5.09,7.11,11.37,6.45,6.4,10.16,7.09,11.46,7.09,.49-.02,.97-.21,1.32-.53l2.02-2.18c.21-.21,.36-.42,.47-.69,.09-.21,.12-.45,.09-.7-.02-.24-.1-.48-.25-.75-.11-.19-.29-.37-.51-.52l-2.57-1.82c-.15-.1-.35-.16-.55-.17-.23-.01-.45,.02-.63,.11l-2.29,1.18c-.59,.28-1.3,.25-1.82,.01-1.72-.83-3.23-1.97-4.52-3.41-1.35-1.2-2.5-2.71-3.35-4.44-.14-.32-.2-.6-.2-.91s.07-.62,.19-.89l1.29-2.34c.05-.13,.09-.37,.09-.64-.01-.14-.09-.37-.22-.58l-1.75-2.48c-.15-.23-.33-.4-.55-.53-.24-.14-.47-.22-.7-.23-.06,0-.11,0-.16,0Z"/></svg>