<svg xmlns="http://www.w3.org/2000/svg" viewBox="0 0 20.17 25.5"><path d="M10.08,25.5c-.14,0-.28-.04-.41-.12-.4-.25-9.68-6.32-9.68-15.03C0,4.64,4.52,0,10.08,0s10.08,4.64,10.08,10.35c0,8.71-9.28,14.78-9.68,15.03-.12,.08-.26,.12-.41,.12ZM10.08,1.5C5.35,1.5,1.5,5.47,1.5,10.35c0,6.92,6.83,12.24,8.58,13.49,1.75-1.25,8.58-6.58,8.58-13.49,0-4.88-3.85-8.85-8.58-8.85Z" /><path d="M10.08,14.7c-2.4,0-4.35-1.95-4.35-4.35s1.95-4.35,4.35-4.35,4.35,1.95,4.35,4.35-1.95,4.35-4.35,4.35Zm0-7.2c-1.57,0-2.85,1.28-2.85,2.85s1.28,2.85,2.85,2.85,2.85-1.28,2.85-2.85-1.28-2.85-2.85-2.85Z" /></svg>